<svg id="SvgjsSvg1306" width="1070.296875" height="374.75" xmlns="http://www.w3.org/2000/svg" version="1.1" xmlns:xlink="http://www.w3.org/1999/xlink" xmlns:svgjs="http://svgjs.com/svgjs"><defs id="SvgjsDefs1307"><marker id="SvgjsMarker1322" markerWidth="16" markerHeight="12" refX="11" refY="6" viewBox="0 0 16 12" orient="auto" markerUnits="userSpaceOnUse" stroke-dasharray="0,0"><path id="SvgjsPath1323" d="M0,0 L16,6 L0,12 L0,0" fill="#323232" stroke="#323232" stroke-width="1"></path></marker><marker id="SvgjsMarker1338" markerWidth="16" markerHeight="12" refX="11" refY="6" viewBox="0 0 16 12" orient="auto" markerUnits="userSpaceOnUse" stroke-dasharray="0,0"><path id="SvgjsPath1339" d="M0,0 L16,6 L0,12 L0,0" fill="#323232" stroke="#323232" stroke-width="1"></path></marker><marker id="SvgjsMarker1342" markerWidth="16" markerHeight="12" refX="11" refY="6" viewBox="0 0 16 12" orient="auto" markerUnits="userSpaceOnUse" stroke-dasharray="0,0"><path id="SvgjsPath1343" d="M0,0 L16,6 L0,12 L0,0" fill="#323232" stroke="#323232" stroke-width="1"></path></marker><marker id="SvgjsMarker1352" markerWidth="16" markerHeight="12" refX="11" refY="6" viewBox="0 0 16 12" orient="auto" markerUnits="userSpaceOnUse" stroke-dasharray="0,0"><path id="SvgjsPath1353" d="M0,0 L16,6 L0,12 L0,0" fill="#323232" stroke="#323232" stroke-width="1"></path></marker><marker id="SvgjsMarker1362" markerWidth="16" markerHeight="12" refX="11" refY="6" viewBox="0 0 16 12" orient="auto" markerUnits="userSpaceOnUse" stroke-dasharray="0,0"><path id="SvgjsPath1363" d="M0,0 L16,6 L0,12 L0,0" fill="#323232" stroke="#323232" stroke-width="1"></path></marker><marker id="SvgjsMarker1378" markerWidth="16" markerHeight="12" refX="11" refY="6" viewBox="0 0 16 12" orient="auto" markerUnits="userSpaceOnUse" stroke-dasharray="0,0"><path id="SvgjsPath1379" d="M0,0 L16,6 L0,12 L0,0" fill="#323232" stroke="#323232" stroke-width="1"></path></marker><marker id="SvgjsMarker1382" markerWidth="16" markerHeight="12" refX="11" refY="6" viewBox="0 0 16 12" orient="auto" markerUnits="userSpaceOnUse" stroke-dasharray="0,0"><path id="SvgjsPath1383" d="M0,0 L16,6 L0,12 L0,0" fill="#323232" stroke="#323232" stroke-width="1"></path></marker><marker id="SvgjsMarker1392" markerWidth="16" markerHeight="12" refX="11" refY="6" viewBox="0 0 16 12" orient="auto" markerUnits="userSpaceOnUse" stroke-dasharray="0,0"><path id="SvgjsPath1393" d="M0,0 L16,6 L0,12 L0,0" fill="#323232" stroke="#323232" stroke-width="1"></path></marker><marker id="SvgjsMarker1402" markerWidth="14" markerHeight="10" refX="10" refY="5" viewBox="0 0 14 10" orient="auto" markerUnits="userSpaceOnUse" stroke-dasharray="0,0"><path id="SvgjsPath1403" d="M0,0 L14,5 L0,10 L0,0" fill="#323232" stroke="#323232" stroke-width="1"></path></marker><marker id="SvgjsMarker1412" markerWidth="16" markerHeight="12" refX="11" refY="6" viewBox="0 0 16 12" orient="auto" markerUnits="userSpaceOnUse" stroke-dasharray="0,0"><path id="SvgjsPath1413" d="M0,0 L16,6 L0,12 L0,0" fill="#323232" stroke="#323232" stroke-width="1"></path></marker><marker id="SvgjsMarker1422" markerWidth="16" markerHeight="12" refX="11" refY="6" viewBox="0 0 16 12" orient="auto" markerUnits="userSpaceOnUse" stroke-dasharray="0,0"><path id="SvgjsPath1423" d="M0,0 L16,6 L0,12 L0,0" fill="#323232" stroke="#323232" stroke-width="1"></path></marker><marker id="SvgjsMarker1426" markerWidth="16" markerHeight="12" refX="11" refY="6" viewBox="0 0 16 12" orient="auto" markerUnits="userSpaceOnUse" stroke-dasharray="0,0"><path id="SvgjsPath1427" d="M0,0 L16,6 L0,12 L0,0" fill="#323232" stroke="#323232" stroke-width="1"></path></marker><marker id="SvgjsMarker1436" markerWidth="16" markerHeight="12" refX="11" refY="6" viewBox="0 0 16 12" orient="auto" markerUnits="userSpaceOnUse" stroke-dasharray="0,0"><path id="SvgjsPath1437" d="M0,0 L16,6 L0,12 L0,0" fill="#323232" stroke="#323232" stroke-width="1"></path></marker><marker id="SvgjsMarker1446" markerWidth="16" markerHeight="12" refX="11" refY="6" viewBox="0 0 16 12" orient="auto" markerUnits="userSpaceOnUse" stroke-dasharray="0,0"><path id="SvgjsPath1447" d="M0,0 L16,6 L0,12 L0,0" fill="#323232" stroke="#323232" stroke-width="1"></path></marker><marker id="SvgjsMarker1450" markerWidth="16" markerHeight="12" refX="11" refY="6" viewBox="0 0 16 12" orient="auto" markerUnits="userSpaceOnUse" stroke-dasharray="0,0"><path id="SvgjsPath1451" d="M0,0 L16,6 L0,12 L0,0" fill="#323232" stroke="#323232" stroke-width="1"></path></marker><marker id="SvgjsMarker1454" markerWidth="16" markerHeight="12" refX="11" refY="6" viewBox="0 0 16 12" orient="auto" markerUnits="userSpaceOnUse" stroke-dasharray="0,0"><path id="SvgjsPath1455" d="M0,0 L16,6 L0,12 L0,0" fill="#323232" stroke="#323232" stroke-width="1"></path></marker></defs><g id="SvgjsG1308" transform="translate(25,127.7056277056277)"><path id="SvgjsPath1309" d="M 0 4Q 0 0 4 0L 65.69593440382644 0Q 69.69593440382644 0 69.69593440382644 4L 69.69593440382644 45.24242424242424Q 69.69593440382644 49.24242424242424 65.69593440382644 49.24242424242424L 4 49.24242424242424Q 0 49.24242424242424 0 45.24242424242424Z" stroke="none" fill-opacity="1" fill="#e01e5b"></path><g id="SvgjsG1310"><text id="SvgjsText1311" font-family="微软雅黑" text-anchor="middle" font-size="17px" width="50px" fill="#f5f5f5" font-weight="700" align="middle" lineHeight="125%" anchor="middle" family="微软雅黑" size="17px" weight="700" font-style="" opacity="1" y="9.996212121212121" transform="rotate(0)"><tspan id="SvgjsTspan1312" dy="21" x="35"><tspan id="SvgjsTspan1313" style="text-decoration:;">A</tspan></tspan></text></g></g><g id="SvgjsG1314" transform="translate(149.05876323881108,124.18831168831161)"><path id="SvgjsPath1315" d="M 0 28.138528138528137L 41.81756064229587 0L 83.63512128459173 28.138528138528137L 41.81756064229587 56.277056277056275Z" stroke="none" fill-opacity="1" fill="#e01e5b"></path><g id="SvgjsG1316"><text id="SvgjsText1317" font-family="微软雅黑" text-anchor="middle" font-size="17px" width="64px" fill="#f5f5f5" font-weight="700" align="middle" lineHeight="125%" anchor="middle" family="微软雅黑" size="17px" weight="700" font-style="" opacity="1" y="13.79491341991342" transform="rotate(0)"><tspan id="SvgjsTspan1318" dy="21" x="42"><tspan id="SvgjsTspan1319" style="text-decoration:;">B</tspan></tspan></text></g></g><g id="SvgjsG1320"><path id="SvgjsPath1321" d="M94.69593440382641 152.32683982683983L121.87734882131872 152.32683982683983L121.87734882131872 152.32683982683972L145.1587632388111 152.32683982683972" stroke="#323232" stroke-width="3" fill="none" marker-end="url(#SvgjsMarker1322)"></path></g><g id="SvgjsG1324" transform="translate(291.2384694226171,216.3419913419914)"><path id="SvgjsPath1325" d="M 0 4Q 0 0 4 0L 65.69593440382644 0Q 69.69593440382644 0 69.69593440382644 4L 69.69593440382644 45.24242424242424Q 69.69593440382644 49.24242424242424 65.69593440382644 49.24242424242424L 4 49.24242424242424Q 0 49.24242424242424 0 45.24242424242424Z" stroke="none" fill-opacity="1" fill="#e01e5b"></path><g id="SvgjsG1326"><text id="SvgjsText1327" font-family="微软雅黑" text-anchor="middle" font-size="17px" width="50px" fill="#f5f5f5" font-weight="700" align="middle" lineHeight="125%" anchor="middle" family="微软雅黑" size="17px" weight="700" font-style="" opacity="1" y="9.996212121212121" transform="rotate(0)"><tspan id="SvgjsTspan1328" dy="21" x="35"><tspan id="SvgjsTspan1329" style="text-decoration:;">C</tspan></tspan></text></g></g><g id="SvgjsG1330" transform="translate(419.4789887256577,25)"><path id="SvgjsPath1331" d="M 0 4Q 0 0 4 0L 65.69593440382644 0Q 69.69593440382644 0 69.69593440382644 4L 69.69593440382644 45.24242424242424Q 69.69593440382644 49.24242424242424 65.69593440382644 49.24242424242424L 4 49.24242424242424Q 0 49.24242424242424 0 45.24242424242424Z" stroke="none" fill-opacity="1" fill="#e01e5b"></path><g id="SvgjsG1332"><text id="SvgjsText1333" font-family="微软雅黑" text-anchor="middle" font-size="17px" width="50px" fill="#f5f5f5" font-weight="700" align="middle" lineHeight="125%" anchor="middle" family="微软雅黑" size="17px" weight="700" font-style="" opacity="1" y="9.996212121212121" transform="rotate(0)"><tspan id="SvgjsTspan1334" dy="21" x="35"><tspan id="SvgjsTspan1335" style="text-decoration:;">D</tspan></tspan></text></g></g><g id="SvgjsG1336"><path id="SvgjsPath1337" d="M232.6938845234028 152.32683982683972L262.0864366245301 152.32683982683972L262.0864366245301 49.621212121212125L415.5789887256577 49.621212121212125" stroke="#323232" stroke-width="3" fill="none" marker-end="url(#SvgjsMarker1338)"></path></g><g id="SvgjsG1340"><path id="SvgjsPath1341" d="M232.6938845234028 152.32683982683972L261.96617697300996 152.32683982683972L261.96617697300996 240.9632034632035L287.3384694226171 240.9632034632035" stroke="#323232" stroke-width="3" fill="none" marker-end="url(#SvgjsMarker1342)"></path></g><g id="SvgjsG1344" transform="translate(547.7195080286983,25)"><path id="SvgjsPath1345" d="M 0 4Q 0 0 4 0L 65.69593440382644 0Q 69.69593440382644 0 69.69593440382644 4L 69.69593440382644 45.24242424242424Q 69.69593440382644 49.24242424242424 65.69593440382644 49.24242424242424L 4 49.24242424242424Q 0 49.24242424242424 0 45.24242424242424Z" stroke="none" fill-opacity="1" fill="#e01e5b"></path><g id="SvgjsG1346"><text id="SvgjsText1347" font-family="微软雅黑" text-anchor="middle" font-size="17px" width="50px" fill="#f5f5f5" font-weight="700" align="middle" lineHeight="125%" anchor="middle" family="微软雅黑" size="17px" weight="700" font-style="" opacity="1" y="9.996212121212121" transform="rotate(0)"><tspan id="SvgjsTspan1348" dy="21" x="35"><tspan id="SvgjsTspan1349" style="text-decoration:;">E</tspan></tspan></text></g></g><g id="SvgjsG1350"><path id="SvgjsPath1351" d="M489.1749231294842 49.621212121212125L518.4472155790913 49.621212121212125L518.4472155790913 49.621212121212125L543.8195080286984 49.621212121212125" stroke="#323232" stroke-width="3" fill="none" marker-end="url(#SvgjsMarker1352)"></path></g><g id="SvgjsG1354" transform="translate(672.4752306115477,25)"><path id="SvgjsPath1355" d="M 0 4Q 0 0 4 0L 65.69593440382644 0Q 69.69593440382644 0 69.69593440382644 4L 69.69593440382644 45.24242424242424Q 69.69593440382644 49.24242424242424 65.69593440382644 49.24242424242424L 4 49.24242424242424Q 0 49.24242424242424 0 45.24242424242424Z" stroke="none" fill-opacity="1" fill="#e01e5b"></path><g id="SvgjsG1356"><text id="SvgjsText1357" font-family="微软雅黑" text-anchor="middle" font-size="17px" width="50px" fill="#f5f5f5" font-weight="700" align="middle" lineHeight="125%" anchor="middle" family="微软雅黑" size="17px" weight="700" font-style="" opacity="1" y="9.996212121212121" transform="rotate(0)"><tspan id="SvgjsTspan1358" dy="21" x="35"><tspan id="SvgjsTspan1359" style="text-decoration:;">F</tspan></tspan></text></g></g><g id="SvgjsG1360"><path id="SvgjsPath1361" d="M617.4154424325249 49.621212121212125L644.9453365220363 49.621212121212125L644.9453365220363 49.621212121212125L668.5752306115477 49.621212121212125" stroke="#323232" stroke-width="3" fill="none" marker-end="url(#SvgjsMarker1362)"></path></g><g id="SvgjsG1364" transform="translate(420.52442774171504,166.39610389610385)"><path id="SvgjsPath1365" d="M 0 28.138528138528137L 41.81756064229587 0L 83.63512128459173 28.138528138528137L 41.81756064229587 56.277056277056275Z" stroke="none" fill-opacity="1" fill="#e01e5b"></path><g id="SvgjsG1366"><text id="SvgjsText1367" font-family="微软雅黑" text-anchor="middle" font-size="17px" width="64px" fill="#f5f5f5" font-weight="700" align="middle" lineHeight="125%" anchor="middle" family="微软雅黑" size="17px" weight="700" font-style="" opacity="1" y="13.79491341991342" transform="rotate(0)"><tspan id="SvgjsTspan1368" dy="21" x="42"><tspan id="SvgjsTspan1369" style="text-decoration:;">G</tspan></tspan></text></g></g><g id="SvgjsG1370" transform="translate(547.7195080286983,300.7575757575758)"><path id="SvgjsPath1371" d="M 0 4Q 0 0 4 0L 65.69593440382644 0Q 69.69593440382644 0 69.69593440382644 4L 69.69593440382644 45.24242424242424Q 69.69593440382644 49.24242424242424 65.69593440382644 49.24242424242424L 4 49.24242424242424Q 0 49.24242424242424 0 45.24242424242424Z" stroke="none" fill-opacity="1" fill="#e01e5b"></path><g id="SvgjsG1372"><text id="SvgjsText1373" font-family="微软雅黑" text-anchor="middle" font-size="17px" width="50px" fill="#f5f5f5" font-weight="700" align="middle" lineHeight="125%" anchor="middle" family="微软雅黑" size="17px" weight="700" font-style="" opacity="1" y="9.996212121212121" transform="rotate(0)"><tspan id="SvgjsTspan1374" dy="21" x="35"><tspan id="SvgjsTspan1375" style="text-decoration:;">L</tspan></tspan></text></g></g><g id="SvgjsG1376"><path id="SvgjsPath1377" d="M360.9344038264436 240.9632034632035L390.72941578407926 240.9632034632035L390.72941578407926 194.53463203463195L416.62442774171507 194.53463203463195" stroke="#323232" stroke-width="3" fill="none" marker-end="url(#SvgjsMarker1378)"></path></g><g id="SvgjsG1380"><path id="SvgjsPath1381" d="M360.9344038264436 240.9632034632035L390.993622594238 240.9632034632035L390.993622594238 325.3787878787879L543.8195080286984 325.3787878787879" stroke="#323232" stroke-width="3" fill="none" marker-end="url(#SvgjsMarker1382)"></path></g><g id="SvgjsG1384" transform="translate(547.7195080286983,127.7056277056277)"><path id="SvgjsPath1385" d="M 0 4Q 0 0 4 0L 65.69593440382644 0Q 69.69593440382644 0 69.69593440382644 4L 69.69593440382644 45.24242424242424Q 69.69593440382644 49.24242424242424 65.69593440382644 49.24242424242424L 4 49.24242424242424Q 0 49.24242424242424 0 45.24242424242424Z" stroke="none" fill-opacity="1" fill="#e01e5b"></path><g id="SvgjsG1386"><text id="SvgjsText1387" font-family="微软雅黑" text-anchor="middle" font-size="17px" width="50px" fill="#f5f5f5" font-weight="700" align="middle" lineHeight="125%" anchor="middle" family="微软雅黑" size="17px" weight="700" font-style="" opacity="1" y="9.996212121212121" transform="rotate(0)"><tspan id="SvgjsTspan1388" dy="21" x="35"><tspan id="SvgjsTspan1389" style="text-decoration:;">H</tspan></tspan></text></g></g><g id="SvgjsG1390"><path id="SvgjsPath1391" d="M504.15954902630676 194.53463203463195L525.9395285275025 194.53463203463195L525.9395285275025 152.32683982683983L543.8195080286984 152.32683982683983" stroke="#323232" stroke-width="3" fill="none" marker-end="url(#SvgjsMarker1392)"></path></g><g id="SvgjsG1394" transform="translate(672.4752306115477,127.7056277056277)"><path id="SvgjsPath1395" d="M 0 4Q 0 0 4 0L 65.69593440382644 0Q 69.69593440382644 0 69.69593440382644 4L 69.69593440382644 45.24242424242424Q 69.69593440382644 49.24242424242424 65.69593440382644 49.24242424242424L 4 49.24242424242424Q 0 49.24242424242424 0 45.24242424242424Z" stroke="none" fill-opacity="1" fill="#e01e5b"></path><g id="SvgjsG1396"><text id="SvgjsText1397" font-family="微软雅黑" text-anchor="middle" font-size="17px" width="50px" fill="#f5f5f5" font-weight="700" align="middle" lineHeight="125%" anchor="middle" family="微软雅黑" size="17px" weight="700" font-style="" opacity="1" y="9.996212121212121" transform="rotate(0)"><tspan id="SvgjsTspan1398" dy="21" x="35"><tspan id="SvgjsTspan1399" style="text-decoration:;">I</tspan></tspan></text></g></g><g id="SvgjsG1400"><path id="SvgjsPath1401" d="M617.4154424325249 152.32683982683983L644.9453365220363 152.32683982683983L644.9453365220363 152.32683982683983L669.8752306115476 152.32683982683983" stroke="#323232" stroke-width="2" fill="none" marker-end="url(#SvgjsMarker1402)"></path></g><g id="SvgjsG1404" transform="translate(610.097369320123,216.3419913419914)"><path id="SvgjsPath1405" d="M 0 4Q 0 0 4 0L 65.69593440382644 0Q 69.69593440382644 0 69.69593440382644 4L 69.69593440382644 45.24242424242424Q 69.69593440382644 49.24242424242424 65.69593440382644 49.24242424242424L 4 49.24242424242424Q 0 49.24242424242424 0 45.24242424242424Z" stroke="none" fill-opacity="1" fill="#e01e5b"></path><g id="SvgjsG1406"><text id="SvgjsText1407" font-family="微软雅黑" text-anchor="middle" font-size="17px" width="50px" fill="#f5f5f5" font-weight="700" align="middle" lineHeight="125%" anchor="middle" family="微软雅黑" size="17px" weight="700" font-style="" opacity="1" y="9.996212121212121" transform="rotate(0)"><tspan id="SvgjsTspan1408" dy="21" x="35"><tspan id="SvgjsTspan1409" style="text-decoration:;">J</tspan></tspan></text></g></g><g id="SvgjsG1410"><path id="SvgjsPath1411" d="M504.15954902630676 194.53463203463195L525.7951258398814 194.53463203463195L525.7951258398814 240.9632034632035L606.197369320123 240.9632034632035" stroke="#323232" stroke-width="3" fill="none" marker-end="url(#SvgjsMarker1412)"></path></g><g id="SvgjsG1414" transform="translate(803.8520669627605,169.91341991341994)"><path id="SvgjsPath1415" d="M 0 4Q 0 0 4 0L 65.69593440382644 0Q 69.69593440382644 0 69.69593440382644 4L 69.69593440382644 45.24242424242424Q 69.69593440382644 49.24242424242424 65.69593440382644 49.24242424242424L 4 49.24242424242424Q 0 49.24242424242424 0 45.24242424242424Z" stroke="none" fill-opacity="1" fill="#e01e5b"></path><g id="SvgjsG1416"><text id="SvgjsText1417" font-family="微软雅黑" text-anchor="middle" font-size="17px" width="50px" fill="#f5f5f5" font-weight="700" align="middle" lineHeight="125%" anchor="middle" family="微软雅黑" size="17px" weight="700" font-style="" opacity="1" y="9.996212121212121" transform="rotate(0)"><tspan id="SvgjsTspan1418" dy="21" x="35"><tspan id="SvgjsTspan1419" style="text-decoration:;">K</tspan></tspan></text></g></g><g id="SvgjsG1420"><path id="SvgjsPath1421" d="M742.1711650153742 152.32683982683983L773.0116159890674 152.32683982683983L773.0116159890674 194.53463203463207L799.9520669627605 194.53463203463207" stroke="#323232" stroke-width="3" fill="none" marker-end="url(#SvgjsMarker1422)"></path></g><g id="SvgjsG1424"><path id="SvgjsPath1425" d="M679.7933037239495 240.9632034632035L773.156018676688 240.9632034632035L773.156018676688 194.53463203463207L799.9520669627605 194.53463203463207" stroke="#323232" stroke-width="3" fill="none" marker-end="url(#SvgjsMarker1426)"></path></g><g id="SvgjsG1428" transform="translate(672.4752306115477,300.7575757575758)"><path id="SvgjsPath1429" d="M 0 4Q 0 0 4 0L 65.69593440382644 0Q 69.69593440382644 0 69.69593440382644 4L 69.69593440382644 45.24242424242424Q 69.69593440382644 49.24242424242424 65.69593440382644 49.24242424242424L 4 49.24242424242424Q 0 49.24242424242424 0 45.24242424242424Z" stroke="none" fill-opacity="1" fill="#e01e5b"></path><g id="SvgjsG1430"><text id="SvgjsText1431" font-family="微软雅黑" text-anchor="middle" font-size="17px" width="50px" fill="#f5f5f5" font-weight="700" align="middle" lineHeight="125%" anchor="middle" family="微软雅黑" size="17px" weight="700" font-style="" opacity="1" y="9.996212121212121" transform="rotate(0)"><tspan id="SvgjsTspan1432" dy="21" x="35"><tspan id="SvgjsTspan1433" style="text-decoration:;">M</tspan></tspan></text></g></g><g id="SvgjsG1434"><path id="SvgjsPath1435" d="M617.4154424325249 325.3787878787879L644.9453365220363 325.3787878787879L644.9453365220363 325.3787878787879L668.5752306115477 325.3787878787879" stroke="#323232" stroke-width="3" fill="none" marker-end="url(#SvgjsMarker1436)"></path></g><g id="SvgjsG1438" transform="translate(975.3040655961736,127.7056277056277)"><path id="SvgjsPath1439" d="M 0 4Q 0 0 4 0L 65.69593440382644 0Q 69.69593440382644 0 69.69593440382644 4L 69.69593440382644 45.24242424242424Q 69.69593440382644 49.24242424242424 65.69593440382644 49.24242424242424L 4 49.24242424242424Q 0 49.24242424242424 0 45.24242424242424Z" stroke="none" fill-opacity="1" fill="#e01e5b"></path><g id="SvgjsG1440"><text id="SvgjsText1441" font-family="微软雅黑" text-anchor="middle" font-size="17px" width="50px" fill="#f5f5f5" font-weight="700" align="middle" lineHeight="125%" anchor="middle" family="微软雅黑" size="17px" weight="700" font-style="" opacity="1" y="9.996212121212121" transform="rotate(0)"><tspan id="SvgjsTspan1442" dy="21" x="35"><tspan id="SvgjsTspan1443" style="text-decoration:;">Z</tspan></tspan></text></g></g><g id="SvgjsG1444"><path id="SvgjsPath1445" d="M742.1711650153742 49.621212121212125L924.7376153057739 49.621212121212125L924.7376153057739 152.32683982683983L971.4040655961735 152.32683982683983" stroke="#323232" stroke-width="3" fill="none" marker-end="url(#SvgjsMarker1446)"></path></g><g id="SvgjsG1448"><path id="SvgjsPath1449" d="M873.548001366587 194.53463203463207L924.4260334813803 194.53463203463207L924.4260334813803 152.32683982683983L971.4040655961735 152.32683982683983" stroke="#323232" stroke-width="3" fill="none" marker-end="url(#SvgjsMarker1450)"></path></g><g id="SvgjsG1452"><path id="SvgjsPath1453" d="M742.1711650153742 325.3787878787879L924.7376153057749 325.3787878787879L924.7376153057749 152.32683982683983L971.4040655961735 152.32683982683983" stroke="#323232" stroke-width="3" fill="none" marker-end="url(#SvgjsMarker1454)"></path></g></svg>