<svg id="SvgjsSvg1006" width="1050.2421875" height="449.109375" xmlns="http://www.w3.org/2000/svg" version="1.1" xmlns:xlink="http://www.w3.org/1999/xlink" xmlns:svgjs="http://svgjs.com/svgjs"><defs id="SvgjsDefs1007"><marker id="SvgjsMarker1070" markerWidth="16" markerHeight="12" refX="11" refY="6" viewBox="0 0 16 12" orient="auto" markerUnits="userSpaceOnUse" stroke-dasharray="0,0"><path id="SvgjsPath1071" d="M0,0 L16,6 L0,12 L0,0" fill="#323232" stroke="#323232" stroke-width="1"></path></marker><marker id="SvgjsMarker1074" markerWidth="16" markerHeight="12" refX="11" refY="6" viewBox="0 0 16 12" orient="auto" markerUnits="userSpaceOnUse" stroke-dasharray="0,0"><path id="SvgjsPath1075" d="M0,0 L16,6 L0,12 L0,0" fill="#323232" stroke="#323232" stroke-width="1"></path></marker><marker id="SvgjsMarker1078" markerWidth="16" markerHeight="12" refX="11" refY="6" viewBox="0 0 16 12" orient="auto" markerUnits="userSpaceOnUse" stroke-dasharray="0,0"><path id="SvgjsPath1079" d="M0,0 L16,6 L0,12 L0,0" fill="#323232" stroke="#323232" stroke-width="1"></path></marker><marker id="SvgjsMarker1082" markerWidth="16" markerHeight="12" refX="11" refY="6" viewBox="0 0 16 12" orient="auto" markerUnits="userSpaceOnUse" stroke-dasharray="0,0"><path id="SvgjsPath1083" d="M0,0 L16,6 L0,12 L0,0" fill="#323232" stroke="#323232" stroke-width="1"></path></marker><marker id="SvgjsMarker1086" markerWidth="16" markerHeight="12" refX="11" refY="6" viewBox="0 0 16 12" orient="auto" markerUnits="userSpaceOnUse" stroke-dasharray="0,0"><path id="SvgjsPath1087" d="M0,0 L16,6 L0,12 L0,0" fill="#323232" stroke="#323232" stroke-width="1"></path></marker><marker id="SvgjsMarker1090" markerWidth="16" markerHeight="12" refX="11" refY="6" viewBox="0 0 16 12" orient="auto" markerUnits="userSpaceOnUse" stroke-dasharray="0,0"><path id="SvgjsPath1091" d="M0,0 L16,6 L0,12 L0,0" fill="#323232" stroke="#323232" stroke-width="1"></path></marker><marker id="SvgjsMarker1126" markerWidth="16" markerHeight="12" refX="11" refY="6" viewBox="0 0 16 12" orient="auto" markerUnits="userSpaceOnUse" stroke-dasharray="0,0"><path id="SvgjsPath1127" d="M0,0 L16,6 L0,12 L0,0" fill="#323232" stroke="#323232" stroke-width="1"></path></marker><marker id="SvgjsMarker1130" markerWidth="16" markerHeight="12" refX="11" refY="6" viewBox="0 0 16 12" orient="auto" markerUnits="userSpaceOnUse" stroke-dasharray="0,0"><path id="SvgjsPath1131" d="M0,0 L16,6 L0,12 L0,0" fill="#323232" stroke="#323232" stroke-width="1"></path></marker><marker id="SvgjsMarker1134" markerWidth="16" markerHeight="12" refX="11" refY="6" viewBox="0 0 16 12" orient="auto" markerUnits="userSpaceOnUse" stroke-dasharray="0,0"><path id="SvgjsPath1135" d="M0,0 L16,6 L0,12 L0,0" fill="#323232" stroke="#323232" stroke-width="1"></path></marker><marker id="SvgjsMarker1138" markerWidth="16" markerHeight="12" refX="11" refY="6" viewBox="0 0 16 12" orient="auto" markerUnits="userSpaceOnUse" stroke-dasharray="0,0"><path id="SvgjsPath1139" d="M0,0 L16,6 L0,12 L0,0" fill="#323232" stroke="#323232" stroke-width="1"></path></marker><marker id="SvgjsMarker1142" markerWidth="16" markerHeight="12" refX="11" refY="6" viewBox="0 0 16 12" orient="auto" markerUnits="userSpaceOnUse" stroke-dasharray="0,0"><path id="SvgjsPath1143" d="M0,0 L16,6 L0,12 L0,0" fill="#323232" stroke="#323232" stroke-width="1"></path></marker><marker id="SvgjsMarker1146" markerWidth="16" markerHeight="12" refX="11" refY="6" viewBox="0 0 16 12" orient="auto" markerUnits="userSpaceOnUse" stroke-dasharray="0,0"><path id="SvgjsPath1147" d="M0,0 L16,6 L0,12 L0,0" fill="#323232" stroke="#323232" stroke-width="1"></path></marker><marker id="SvgjsMarker1150" markerWidth="16" markerHeight="12" refX="11" refY="6" viewBox="0 0 16 12" orient="auto" markerUnits="userSpaceOnUse" stroke-dasharray="0,0"><path id="SvgjsPath1151" d="M0,0 L16,6 L0,12 L0,0" fill="#323232" stroke="#323232" stroke-width="1"></path></marker><marker id="SvgjsMarker1154" markerWidth="16" markerHeight="12" refX="11" refY="6" viewBox="0 0 16 12" orient="auto" markerUnits="userSpaceOnUse" stroke-dasharray="0,0"><path id="SvgjsPath1155" d="M0,0 L16,6 L0,12 L0,0" fill="#323232" stroke="#323232" stroke-width="1"></path></marker><marker id="SvgjsMarker1164" markerWidth="16" markerHeight="12" refX="11" refY="6" viewBox="0 0 16 12" orient="auto" markerUnits="userSpaceOnUse" stroke-dasharray="0,0"><path id="SvgjsPath1165" d="M0,0 L16,6 L0,12 L0,0" fill="#323232" stroke="#323232" stroke-width="1"></path></marker><marker id="SvgjsMarker1168" markerWidth="16" markerHeight="12" refX="11" refY="6" viewBox="0 0 16 12" orient="auto" markerUnits="userSpaceOnUse" stroke-dasharray="0,0"><path id="SvgjsPath1169" d="M0,0 L16,6 L0,12 L0,0" fill="#323232" stroke="#323232" stroke-width="1"></path></marker><marker id="SvgjsMarker1172" markerWidth="16" markerHeight="12" refX="11" refY="6" viewBox="0 0 16 12" orient="auto" markerUnits="userSpaceOnUse" stroke-dasharray="0,0"><path id="SvgjsPath1173" d="M0,0 L16,6 L0,12 L0,0" fill="#323232" stroke="#323232" stroke-width="1"></path></marker></defs><g id="SvgjsG1008" transform="translate(25.003595298086793,128.89441287878788)"><path id="SvgjsPath1009" d="M 0 4Q 0 0 4 0L 65.69593440382644 0Q 69.69593440382644 0 69.69593440382644 4L 69.69593440382644 45.24242424242424Q 69.69593440382644 49.24242424242424 65.69593440382644 49.24242424242424L 4 49.24242424242424Q 0 49.24242424242424 0 45.24242424242424Z" stroke="none" fill-opacity="1" fill="#e01e5b"></path><g id="SvgjsG1010"><text id="SvgjsText1011" font-family="微软雅黑" text-anchor="middle" font-size="17px" width="50px" fill="#f5f5f5" font-weight="700" align="middle" lineHeight="125%" anchor="middle" family="微软雅黑" size="17px" weight="700" font-style="" opacity="1" y="9.996212121212121" transform="rotate(0)"><tspan id="SvgjsTspan1012" dy="21" x="35"><tspan id="SvgjsTspan1013" style="text-decoration:;">A</tspan></tspan></text></g></g><g id="SvgjsG1014" transform="translate(362.9427821788521,25.00552398989899)"><path id="SvgjsPath1015" d="M 0 4Q 0 0 4 0L 65.69593440382644 0Q 69.69593440382644 0 69.69593440382644 4L 69.69593440382644 45.24242424242424Q 69.69593440382644 49.24242424242424 65.69593440382644 49.24242424242424L 4 49.24242424242424Q 0 49.24242424242424 0 45.24242424242424Z" stroke="none" fill-opacity="1" fill="#e01e5b"></path><g id="SvgjsG1016"><text id="SvgjsText1017" font-family="微软雅黑" text-anchor="middle" font-size="17px" width="50px" fill="#f5f5f5" font-weight="700" align="middle" lineHeight="125%" anchor="middle" family="微软雅黑" size="17px" weight="700" font-style="" opacity="1" y="9.996212121212121" transform="rotate(0)"><tspan id="SvgjsTspan1018" dy="21" x="35"><tspan id="SvgjsTspan1019" style="text-decoration:;">B</tspan></tspan></text></g></g><g id="SvgjsG1020" transform="translate(266.94278217885187,128.89441287878788)"><path id="SvgjsPath1021" d="M 0 4Q 0 0 4 0L 65.69593440382644 0Q 69.69593440382644 0 69.69593440382644 4L 69.69593440382644 45.24242424242424Q 69.69593440382644 49.24242424242424 65.69593440382644 49.24242424242424L 4 49.24242424242424Q 0 49.24242424242424 0 45.24242424242424Z" stroke="none" fill-opacity="1" fill="#e01e5b"></path><g id="SvgjsG1022"><text id="SvgjsText1023" font-family="微软雅黑" text-anchor="middle" font-size="17px" width="50px" fill="#f5f5f5" font-weight="700" align="middle" lineHeight="125%" anchor="middle" family="微软雅黑" size="17px" weight="700" font-style="" opacity="1" y="9.996212121212121" transform="rotate(0)"><tspan id="SvgjsTspan1024" dy="21" x="35"><tspan id="SvgjsTspan1025" style="text-decoration:;">D</tspan></tspan></text></g></g><g id="SvgjsG1026" transform="translate(166.9427821788521,313.11663510101005)"><path id="SvgjsPath1027" d="M 0 28.138528138528137L 41.81756064229587 0L 83.63512128459173 28.138528138528137L 41.81756064229587 56.277056277056275Z" stroke="none" fill-opacity="1" fill="#e01e5b"></path><g id="SvgjsG1028"><text id="SvgjsText1029" font-family="微软雅黑" text-anchor="middle" font-size="17px" width="64px" fill="#f5f5f5" font-weight="700" align="middle" lineHeight="125%" anchor="middle" family="微软雅黑" size="17px" weight="700" font-style="" opacity="1" y="13.79491341991342" transform="rotate(0)"><tspan id="SvgjsTspan1030" dy="21" x="42"><tspan id="SvgjsTspan1031" style="text-decoration:;">G</tspan></tspan></text></g></g><g id="SvgjsG1032" transform="translate(298.9427821788521,245.11663510101005)"><path id="SvgjsPath1033" d="M 0 4Q 0 0 4 0L 65.69593440382644 0Q 69.69593440382644 0 69.69593440382644 4L 69.69593440382644 45.24242424242424Q 69.69593440382644 49.24242424242424 65.69593440382644 49.24242424242424L 4 49.24242424242424Q 0 49.24242424242424 0 45.24242424242424Z" stroke="none" fill-opacity="1" fill="#e01e5b"></path><g id="SvgjsG1034"><text id="SvgjsText1035" font-family="微软雅黑" text-anchor="middle" font-size="17px" width="50px" fill="#f5f5f5" font-weight="700" align="middle" lineHeight="125%" anchor="middle" family="微软雅黑" size="17px" weight="700" font-style="" opacity="1" y="9.996212121212121" transform="rotate(0)"><tspan id="SvgjsTspan1036" dy="21" x="35"><tspan id="SvgjsTspan1037" style="text-decoration:;">H</tspan></tspan></text></g></g><g id="SvgjsG1038" transform="translate(438.9427821788521,245.11663510101005)"><path id="SvgjsPath1039" d="M 0 4Q 0 0 4 0L 65.69593440382644 0Q 69.69593440382644 0 69.69593440382644 4L 69.69593440382644 45.24242424242424Q 69.69593440382644 49.24242424242424 65.69593440382644 49.24242424242424L 4 49.24242424242424Q 0 49.24242424242424 0 45.24242424242424Z" stroke="none" fill-opacity="1" fill="#e01e5b"></path><g id="SvgjsG1040"><text id="SvgjsText1041" font-family="微软雅黑" text-anchor="middle" font-size="17px" width="50px" fill="#f5f5f5" font-weight="700" align="middle" lineHeight="125%" anchor="middle" family="微软雅黑" size="17px" weight="700" font-style="" opacity="1" y="9.996212121212121" transform="rotate(0)"><tspan id="SvgjsTspan1042" dy="21" x="35"><tspan id="SvgjsTspan1043" style="text-decoration:;">I</tspan></tspan></text></g></g><g id="SvgjsG1044" transform="translate(578.9427821788521,195.8742108585858)"><path id="SvgjsPath1045" d="M 0 4Q 0 0 4 0L 65.69593440382644 0Q 69.69593440382644 0 69.69593440382644 4L 69.69593440382644 45.24242424242424Q 69.69593440382644 49.24242424242424 65.69593440382644 49.24242424242424L 4 49.24242424242424Q 0 49.24242424242424 0 45.24242424242424Z" stroke="none" fill-opacity="1" fill="#e01e5b"></path><g id="SvgjsG1046"><text id="SvgjsText1047" font-family="微软雅黑" text-anchor="middle" font-size="17px" width="50px" fill="#f5f5f5" font-weight="700" align="middle" lineHeight="125%" anchor="middle" family="微软雅黑" size="17px" weight="700" font-style="" opacity="1" y="9.996212121212121" transform="rotate(0)"><tspan id="SvgjsTspan1048" dy="21" x="35"><tspan id="SvgjsTspan1049" style="text-decoration:;">J</tspan></tspan></text></g></g><g id="SvgjsG1050" transform="translate(578.9427821788521,294.3590593434343)"><path id="SvgjsPath1051" d="M 0 4Q 0 0 4 0L 65.69593440382644 0Q 69.69593440382644 0 69.69593440382644 4L 69.69593440382644 45.24242424242424Q 69.69593440382644 49.24242424242424 65.69593440382644 49.24242424242424L 4 49.24242424242424Q 0 49.24242424242424 0 45.24242424242424Z" stroke="none" fill-opacity="1" fill="#e01e5b"></path><g id="SvgjsG1052"><text id="SvgjsText1053" font-family="微软雅黑" text-anchor="middle" font-size="17px" width="50px" fill="#f5f5f5" font-weight="700" align="middle" lineHeight="125%" anchor="middle" family="微软雅黑" size="17px" weight="700" font-style="" opacity="1" y="9.996212121212121" transform="rotate(0)"><tspan id="SvgjsTspan1054" dy="21" x="35"><tspan id="SvgjsTspan1055" style="text-decoration:;">K</tspan></tspan></text></g></g><g id="SvgjsG1056" transform="translate(362.9427821788521,375.11663510101005)"><path id="SvgjsPath1057" d="M 0 4Q 0 0 4 0L 65.69593440382644 0Q 69.69593440382644 0 69.69593440382644 4L 69.69593440382644 45.24242424242424Q 69.69593440382644 49.24242424242424 65.69593440382644 49.24242424242424L 4 49.24242424242424Q 0 49.24242424242424 0 45.24242424242424Z" stroke="none" fill-opacity="1" fill="#e01e5b"></path><g id="SvgjsG1058"><text id="SvgjsText1059" font-family="微软雅黑" text-anchor="middle" font-size="17px" width="50px" fill="#f5f5f5" font-weight="700" align="middle" lineHeight="125%" anchor="middle" family="微软雅黑" size="17px" weight="700" font-style="" opacity="1" y="9.996212121212121" transform="rotate(0)"><tspan id="SvgjsTspan1060" dy="21" x="35"><tspan id="SvgjsTspan1061" style="text-decoration:;">L</tspan></tspan></text></g></g><g id="SvgjsG1062" transform="translate(619.2468477750257,375.11663510101005)"><path id="SvgjsPath1063" d="M 0 4Q 0 0 4 0L 65.69593440382644 0Q 69.69593440382644 0 69.69593440382644 4L 69.69593440382644 45.24242424242424Q 69.69593440382644 49.24242424242424 65.69593440382644 49.24242424242424L 4 49.24242424242424Q 0 49.24242424242424 0 45.24242424242424Z" stroke="none" fill-opacity="1" fill="#e01e5b"></path><g id="SvgjsG1064"><text id="SvgjsText1065" font-family="微软雅黑" text-anchor="middle" font-size="17px" width="50px" fill="#f5f5f5" font-weight="700" align="middle" lineHeight="125%" anchor="middle" family="微软雅黑" size="17px" weight="700" font-style="" opacity="1" y="9.996212121212121" transform="rotate(0)"><tspan id="SvgjsTspan1066" dy="21" x="35"><tspan id="SvgjsTspan1067" style="text-decoration:;">M</tspan></tspan></text></g></g><g id="SvgjsG1068"><path id="SvgjsPath1069" d="M250.57790346344382 341.2551632395382L274.760342821148 341.2551632395382L274.760342821148 269.7378472222222L295.0427821788521 269.7378472222222" stroke="#323232" stroke-width="3" fill="none" marker-end="url(#SvgjsMarker1070)"></path></g><g id="SvgjsG1072"><path id="SvgjsPath1073" d="M250.57790346344382 341.2551632395382L274.76034282114796 341.2551632395382L274.76034282114796 399.7378472222222L359.0427821788521 399.7378472222222" stroke="#323232" stroke-width="3" fill="none" marker-end="url(#SvgjsMarker1074)"></path></g><g id="SvgjsG1076"><path id="SvgjsPath1077" d="M368.6387165826785 269.7378472222222L403.7907493807653 269.7378472222222L403.7907493807653 269.7378472222222L435.0427821788521 269.7378472222222" stroke="#323232" stroke-width="3" fill="none" marker-end="url(#SvgjsMarker1078)"></path></g><g id="SvgjsG1080"><path id="SvgjsPath1081" d="M508.6387165826785 269.7378472222222L543.7907493807653 269.7378472222222L543.7907493807653 220.49542297979792L575.0427821788521 220.49542297979792" stroke="#323232" stroke-width="3" fill="none" marker-end="url(#SvgjsMarker1082)"></path></g><g id="SvgjsG1084"><path id="SvgjsPath1085" d="M508.6387165826785 269.7378472222222L543.7907493807653 269.7378472222222L543.7907493807653 318.9802714646464L575.0427821788521 318.9802714646464" stroke="#323232" stroke-width="3" fill="none" marker-end="url(#SvgjsMarker1086)"></path></g><g id="SvgjsG1088"><path id="SvgjsPath1089" d="M432.6387165826786 399.7378472222222L525.9427821788522 399.7378472222222L525.9427821788522 399.7378472222222L615.3468477750257 399.7378472222222" stroke="#323232" stroke-width="3" fill="none" marker-end="url(#SvgjsMarker1090)"></path></g><g id="SvgjsG1092" transform="translate(721.9427821788522,259.7378472222222)"><path id="SvgjsPath1093" d="M 0 10C 0 -3.3333333333333335 20 -3.3333333333333335 20 10C 20 23.333333333333332 0 23.333333333333332 0 10Z" stroke="none" fill-opacity="1" fill="#e01e5b"></path><g id="SvgjsG1094"><text id="SvgjsText1095" font-family="微软雅黑" text-anchor="middle" font-size="13px" width="0px" fill="#323232" font-weight="400" align="middle" lineHeight="125%" anchor="middle" family="微软雅黑" size="13px" weight="400" font-style="" opacity="1" y="-0.625" transform="rotate(0)"></text></g></g><g id="SvgjsG1096"><path id="SvgjsPath1097" d="M648.6387165826785 220.49542297979792L685.2907493807654 220.49542297979792L685.2907493807654 269.7378472222222L721.9427821788522 269.7378472222222" stroke="#323232" stroke-width="3" fill="none"></path></g><g id="SvgjsG1098"><path id="SvgjsPath1099" d="M648.6387165826785 318.9802714646464L685.2907493807654 318.9802714646464L685.2907493807654 269.7378472222222L721.9427821788522 269.7378472222222" stroke="#323232" stroke-width="3" fill="none"></path></g><g id="SvgjsG1100" transform="translate(807.3579588861369,316.633951118326)"><path id="SvgjsPath1101" d="M 0 4Q 0 0 4 0L 65.69593440382644 0Q 69.69593440382644 0 69.69593440382644 4L 69.69593440382644 45.24242424242424Q 69.69593440382644 49.24242424242424 65.69593440382644 49.24242424242424L 4 49.24242424242424Q 0 49.24242424242424 0 45.24242424242424Z" stroke="none" fill-opacity="1" fill="#e01e5b"></path><g id="SvgjsG1102"><text id="SvgjsText1103" font-family="微软雅黑" text-anchor="middle" font-size="17px" width="50px" fill="#f5f5f5" font-weight="700" align="middle" lineHeight="125%" anchor="middle" family="微软雅黑" size="17px" weight="700" font-style="" opacity="1" y="9.996212121212121" transform="rotate(0)"><tspan id="SvgjsTspan1104" dy="21" x="35"><tspan id="SvgjsTspan1105" style="text-decoration:;">N</tspan></tspan></text></g></g><g id="SvgjsG1106" transform="translate(488.94278217885244,128.89441287878788)"><path id="SvgjsPath1107" d="M 0 4Q 0 0 4 0L 65.69593440382644 0Q 69.69593440382644 0 69.69593440382644 4L 69.69593440382644 45.24242424242424Q 69.69593440382644 49.24242424242424 65.69593440382644 49.24242424242424L 4 49.24242424242424Q 0 49.24242424242424 0 45.24242424242424Z" stroke="none" fill-opacity="1" fill="#e01e5b"></path><g id="SvgjsG1108"><text id="SvgjsText1109" font-family="微软雅黑" text-anchor="middle" font-size="17px" width="50px" fill="#f5f5f5" font-weight="700" align="middle" lineHeight="125%" anchor="middle" family="微软雅黑" size="17px" weight="700" font-style="" opacity="1" y="9.996212121212121" transform="rotate(0)"><tspan id="SvgjsTspan1110" dy="21" x="35"><tspan id="SvgjsTspan1111" style="text-decoration:;">E</tspan></tspan></text></g></g><g id="SvgjsG1112" transform="translate(728.8842467045322,128.89441287878788)"><path id="SvgjsPath1113" d="M 0 4Q 0 0 4 0L 65.69593440382644 0Q 69.69593440382644 0 69.69593440382644 4L 69.69593440382644 45.24242424242424Q 69.69593440382644 49.24242424242424 65.69593440382644 49.24242424242424L 4 49.24242424242424Q 0 49.24242424242424 0 45.24242424242424Z" stroke="none" fill-opacity="1" fill="#e01e5b"></path><g id="SvgjsG1114"><text id="SvgjsText1115" font-family="微软雅黑" text-anchor="middle" font-size="17px" width="50px" fill="#f5f5f5" font-weight="700" align="middle" lineHeight="125%" anchor="middle" family="微软雅黑" size="17px" weight="700" font-style="" opacity="1" y="9.996212121212121" transform="rotate(0)"><tspan id="SvgjsTspan1116" dy="21" x="35"><tspan id="SvgjsTspan1117" style="text-decoration:;">F</tspan></tspan></text></g></g><g id="SvgjsG1118" transform="translate(619.2468477750257,25.00552398989899)"><path id="SvgjsPath1119" d="M 0 4Q 0 0 4 0L 65.69593440382644 0Q 69.69593440382644 0 69.69593440382644 4L 69.69593440382644 45.24242424242424Q 69.69593440382644 49.24242424242424 65.69593440382644 49.24242424242424L 4 49.24242424242424Q 0 49.24242424242424 0 45.24242424242424Z" stroke="none" fill-opacity="1" fill="#e01e5b"></path><g id="SvgjsG1120"><text id="SvgjsText1121" font-family="微软雅黑" text-anchor="middle" font-size="17px" width="50px" fill="#f5f5f5" font-weight="700" align="middle" lineHeight="125%" anchor="middle" family="微软雅黑" size="17px" weight="700" font-style="" opacity="1" y="9.996212121212121" transform="rotate(0)"><tspan id="SvgjsTspan1122" dy="21" x="35"><tspan id="SvgjsTspan1123" style="text-decoration:;">C</tspan></tspan></text></g></g><g id="SvgjsG1124"><path id="SvgjsPath1125" d="M94.6995297019132 153.515625L180.82115594038254 153.515625L180.82115594038254 153.515625L263.0427821788519 153.515625" stroke="#323232" stroke-width="3" fill="none" marker-end="url(#SvgjsMarker1126)"></path></g><g id="SvgjsG1128"><path id="SvgjsPath1129" d="M336.6387165826783 153.515625L412.7907493807654 153.515625L412.7907493807654 153.515625L485.04278217885246 153.515625" stroke="#323232" stroke-width="3" fill="none" marker-end="url(#SvgjsMarker1130)"></path></g><g id="SvgjsG1132"><path id="SvgjsPath1133" d="M558.6387165826789 153.515625L643.7614816436055 153.515625L643.7614816436055 153.515625L724.9842467045322 153.515625" stroke="#323232" stroke-width="3" fill="none" marker-end="url(#SvgjsMarker1134)"></path></g><g id="SvgjsG1136"><path id="SvgjsPath1137" d="M94.6995297019132 153.515625L131.04337816260505 153.515625L131.04337816260505 49.626736111111114L359.0427821788521 49.626736111111114" stroke="#323232" stroke-width="3" fill="none" marker-end="url(#SvgjsMarker1138)"></path></g><g id="SvgjsG1140"><path id="SvgjsPath1141" d="M432.6387165826785 49.626736111111114L525.9427821788521 49.626736111111114L525.9427821788521 49.626736111111114L615.3468477750257 49.626736111111114" stroke="#323232" stroke-width="3" fill="none" marker-end="url(#SvgjsMarker1142)"></path></g><g id="SvgjsG1144"><path id="SvgjsPath1145" d="M94.6995297019132 153.515625L130.82115594038265 153.515625L130.82115594038265 341.2551632395382L163.04278217885212 341.2551632395382" stroke="#323232" stroke-width="3" fill="none" marker-end="url(#SvgjsMarker1146)"></path></g><g id="SvgjsG1148"><path id="SvgjsPath1149" d="M688.9427821788521 399.7378472222222L771.4837038658274 399.7378472222222L771.4837038658274 341.25516323953815L803.4579588861369 341.25516323953815" stroke="#323232" stroke-width="3" fill="none" marker-end="url(#SvgjsMarker1150)"></path></g><g id="SvgjsG1152"><path id="SvgjsPath1153" d="M741.9427821788522 269.7378472222222L771.3170371991613 269.7378472222222L771.3170371991613 341.25516323953815L803.4579588861369 341.25516323953815" stroke="#323232" stroke-width="3" fill="none" marker-end="url(#SvgjsMarker1154)"></path></g><g id="SvgjsG1156" transform="translate(955.2468477750258,128.89441287878788)"><path id="SvgjsPath1157" d="M 0 4Q 0 0 4 0L 65.69593440382644 0Q 69.69593440382644 0 69.69593440382644 4L 69.69593440382644 45.24242424242424Q 69.69593440382644 49.24242424242424 65.69593440382644 49.24242424242424L 4 49.24242424242424Q 0 49.24242424242424 0 45.24242424242424Z" stroke="none" fill-opacity="1" fill="#e01e5b"></path><g id="SvgjsG1158"><text id="SvgjsText1159" font-family="微软雅黑" text-anchor="middle" font-size="17px" width="50px" fill="#f5f5f5" font-weight="700" align="middle" lineHeight="125%" anchor="middle" family="微软雅黑" size="17px" weight="700" font-style="" opacity="1" y="9.996212121212121" transform="rotate(0)"><tspan id="SvgjsTspan1160" dy="21" x="35"><tspan id="SvgjsTspan1161" style="text-decoration:;">Z</tspan></tspan></text></g></g><g id="SvgjsG1162"><path id="SvgjsPath1163" d="M877.0538932899633 341.25516323953815L916.1503705324944 341.25516323953815L916.1503705324944 153.515625L951.3468477750257 153.515625" stroke="#323232" stroke-width="3" fill="none" marker-end="url(#SvgjsMarker1164)"></path></g><g id="SvgjsG1166"><path id="SvgjsPath1167" d="M798.5801811083586 153.515625L876.9135144416923 153.515625L876.9135144416923 153.515625L951.3468477750257 153.515625" stroke="#323232" stroke-width="3" fill="none" marker-end="url(#SvgjsMarker1168)"></path></g><g id="SvgjsG1170"><path id="SvgjsPath1171" d="M688.9427821788521 49.626736111111114L915.4281483102718 49.626736111111114L915.4281483102718 153.515625L951.3468477750257 153.515625" stroke="#323232" stroke-width="3" fill="none" marker-end="url(#SvgjsMarker1172)"></path></g></svg>