<svg xmlns="http://www.w3.org/2000/svg" xmlns:xlink="http://www.w3.org/1999/xlink" fill="none" version="1.1" width="3127" height="893" viewBox="0 0 3127 893"><defs><filter id="master_svg2_7_11" filterUnits="userSpaceOnUse" color-interpolation-filters="sRGB" x="1298" y="90" width="528.4400024414062" height="518.0400085449219"><feFlood flood-opacity="0" result="BackgroundImageFix"/><feColorMatrix in="SourceAlpha" type="matrix" values="0 0 0 0 0 0 0 0 0 0 0 0 0 0 0 0 0 0 127 0"/><feOffset dy="4" dx="0"/><feGaussianBlur stdDeviation="5"/><feColorMatrix type="matrix" values="0 0 0 0 0 0 0 0 0 0 0 0 0 0 0 0 0 0 0.3019607961177826 0"/><feBlend mode="normal" in2="BackgroundImageFix" result="effect1_dropShadow"/><feBlend mode="normal" in="SourceGraphic" in2="effect1_dropShadow" result="shape"/></filter><mask id="master_svg3_7_16"><rect x="1346.2199974060059" y="134.01998901367188" width="422" height="422" rx="210.98109436035156" fill="#FFFFFF" fill-opacity="1"/></mask></defs><clipPath id="master_svg0_7_02"><rect x="0" y="0" width="3127" height="893" rx="0"/></clipPath><clipPath id="master_svg1_7_11"><rect x="1308" y="96" width="508.44000244140625" height="498.0400085449219" rx="0"/></clipPath><g clip-path="url(#master_svg0_7_02)" style="mix-blend-mode:passthrough"><rect x="0" y="0" width="3127" height="893" rx="0" fill="#DDDDDD" fill-opacity="1"/><g><g filter="url(#master_svg2_7_11)"><g><g style="mix-blend-mode:passthrough"><ellipse cx="1557.0000457763672" cy="345.00001525878906" rx="230.00001525878906" ry="230.00001525878906" fill="#18191A" fill-opacity="1"/></g><g><g mask="url(#master_svg3_7_16)"><g><rect x="1299.3557090759277" y="258.26817321777344" width="111.6500015258789" height="234.33999633789062" rx="20.8700008392334" transform="matrix(0.7071067690849304,-0.7071067690849304,0.7071067690849304,0.7071067690849304,197.94931821770274,994.4282170330246)" fill="#FFFFFF" fill-opacity="1"/><rect x="1570.0268821716309" y="345.02001953125" width="111.6500015258789" height="234.33999633789062" rx="20.8700008392334" transform="matrix(0.7071067690849304,-0.7071067690849304,0.7071067690849304,0.7071067690849304,215.88425486240044,1211.2306642797569)" fill="#FFFFFF" fill-opacity="1"/><rect x="1478.067226409912" y="253.06344604492188" width="234.33999633789062" height="111.6500015258789" rx="20.8700008392334" transform="matrix(0.7071067690849304,-0.7071067690849304,0.7071067690849304,0.7071067690849304,253.9730097465515,1119.2719112956358)" fill="#FFFFFF" fill-opacity="1"/><rect x="1391.325366973877" y="523.734619140625" width="234.33999633789062" height="111.6500015258789" rx="20.8700008392334" transform="matrix(0.7071067690849304,-0.7071067690849304,0.7071067690849304,0.7071067690849304,37.173487588619764,1137.2139097289744)" fill="#FFFFFF" fill-opacity="1"/><path d="M1462.259993914795,237.32003720092774L1387.259997914795,162.32003720092774C1382.909993914795,157.96003720092773,1460.259993914795,122.19003720092773,1466.439993914795,122.19003720092773L1533.440293914795,99.18999860092774C1539.630293914795,99.18999860092774,1611.2102939147949,98.18999820092773,1606.830293914795,102.57999720092774L1472.1099939147948,237.32003720092774C1469.382093914795,240.02103720092774,1464.987893914795,240.02103720092774,1462.259993914795,237.32003720092774Z" fill="#E01E5A" fill-opacity="1"/><path d="M1664.779994046631,250.2399587524414L1751.1300040466308,163.8999977524414C1755.510004046631,159.50999875244142,1775.440304046631,213.99995875244142,1775.440304046631,220.1999587524414L1816.440304046631,348.1996587524414C1816.440304046631,354.3996587524414,1794.5503040466308,389.8496587524414,1790.170304046631,385.46965875244143L1664.779994046631,260.07995875244137C1662.0857510466308,257.35325875244143,1662.0857510466308,252.96675875244142,1664.779994046631,250.2399587524414Z" fill="#E01E5A" fill-opacity="1"/><path d="M1651.4801706237793,452.5199880957031L1734.8001706237792,535.8399980957031C1739.1801706237793,540.2199980957031,1721.6301706237793,544.1999980957031,1715.4401706237793,544.1999980957031L1574.4399706237793,586.2002980957031C1568.2399706237793,586.2002980957031,1503.3199906237794,590.8402980957031,1507.6999936237794,586.4602980957031L1641.6401706237793,452.5199880957031C1644.3671706237792,449.8257450957031,1648.7531706237792,449.8257450957031,1651.4801706237793,452.5199880957031Z" fill="#E01E5A" fill-opacity="1"/><path d="M1449.3102859802245,439.7600767822266L1379.6499859802245,509.4200767822266C1375.2699859802246,513.8000767822266,1372.4399859802247,500.4200767822266,1372.4399859802247,494.2000767822266L1336.4399959802247,344.19997678222654C1336.4399959802247,338.00997678222654,1331.1299959802245,311.7400167822266,1335.5099959802246,316.13000478222654L1449.3102859802245,429.92007678222654C1452.0042859802247,432.6470767822266,1452.0042859802247,437.03307678222654,1449.3102859802245,439.7600767822266Z" fill="#E01E5A" fill-opacity="1"/></g></g></g></g></g><g style="mix-blend-mode:passthrough"><path d="M1222.75,750.76L1297.7969,750.76L1297.7969,726.76L1251.3906,726.76L1251.3906,631.76L1222.75,631.76L1222.75,750.76ZM1316.516,750.76L1345,750.76L1345,659.76L1316.516,659.76L1316.516,750.76ZM1330.75,647.0412C1340.188,647.0412,1346.594,641.2912,1346.594,632.3225C1346.594,623.5255999999999,1340.188,617.76,1330.75,617.76C1321.156,617.76,1314.906,623.5255999999999,1314.906,632.3225C1314.906,641.2912,1321.156,647.0412,1330.75,647.0412ZM1403.359,752.76C1412.641,752.76,1419.188,750.854,1424,749.4010000000001L1419.516,728.7760000000001C1417.281,729.572,1414.078,730.5260000000001,1411.188,730.5260000000001C1404.469,730.5260000000001,1399.672,726.557,1399.672,716.5260000000001L1399.672,682.01L1421.109,682.01L1421.109,659.76L1399.672,659.76L1399.672,635.6037L1376.156,635.6037L1372.953,659.76L1358.875,660.885L1358.875,682.01L1371.188,682.01L1371.188,716.854C1371.188,738.213,1380.469,752.76,1403.359,752.76ZM1479.797,752.76C1490.359,752.76,1502.828,749.088,1512.281,742.369L1502.828,725.369C1496.281,729.119,1490.188,731.01,1483.641,731.01C1472.109,731.01,1463.469,725.994,1460.906,713.76L1514.359,713.76C1515,711.5260000000001,1515.641,706.572,1515.641,701.447C1515.641,676.807,1502.828,657.76,1476.594,657.76C1454.672,657.76,1433.391,676.01,1433.391,705.2909999999999C1433.391,735.1659999999999,1453.547,752.76,1479.797,752.76ZM1460.438,695.0409999999999C1462.359,684.432,1469.234,679.526,1477.078,679.526C1487.469,679.526,1491.469,686.182,1491.469,695.0409999999999L1460.438,695.0409999999999ZM1535.75,750.76L1564.391,750.76L1564.391,705.604L1605.031,705.604L1605.031,681.76L1564.391,681.76L1564.391,655.6037L1611.75,655.6037L1611.75,631.76L1535.75,631.76L1535.75,750.76ZM1656.438,752.76C1662.828,752.76,1667.469,751.6510000000001,1670.516,750.369L1667.156,729.4010000000001C1665.547,729.729,1664.906,729.729,1663.953,729.729C1661.719,729.729,1659,727.963,1659,721.885L1659,622.6819L1630.516,622.6819L1630.516,720.932C1630.516,739.963,1636.906,752.76,1656.438,752.76ZM1723.031,752.76C1746.078,752.76,1767.516,735.1659999999999,1767.516,705.182C1767.516,675.369,1746.078,657.76,1723.031,657.76C1699.828,657.76,1678.391,675.369,1678.391,705.182C1678.391,735.1659999999999,1699.828,752.76,1723.031,752.76ZM1723.031,729.729C1712.312,729.729,1707.516,720.229,1707.516,705.182C1707.516,690.307,1712.312,680.807,1723.031,680.807C1733.594,680.807,1738.391,690.307,1738.391,705.182C1738.391,720.229,1733.594,729.729,1723.031,729.729ZM1800.875,750.76L1833.359,750.76L1840.719,716.057C1842.312,707.588,1843.594,699.2760000000001,1845.031,689.369L1845.828,689.369C1847.438,699.2760000000001,1848.875,707.588,1850.641,716.057L1858.312,750.76L1891.594,750.76L1913.031,659.76L1886.641,659.76L1878.797,700.4010000000001C1877.188,709.51,1876.234,718.463,1874.797,727.729L1874,727.729C1872.078,718.463,1870.469,709.51,1868.391,700.4010000000001L1858.641,659.76L1834.156,659.76L1824.719,700.4010000000001C1822.469,709.354,1821.031,718.463,1819.438,727.729L1818.641,727.729C1817.188,718.463,1816.234,709.51,1814.797,700.4010000000001L1806.641,659.76L1778.469,659.76L1800.875,750.76Z" fill="#18191A" fill-opacity="1"/></g></g></g></svg>