<svg xmlns="http://www.w3.org/2000/svg" xmlns:xlink="http://www.w3.org/1999/xlink" fill="none" version="1.1" width="1943" height="500" viewBox="0 0 1943 500"><defs><linearGradient x1="0.5" y1="0" x2="0.5" y2="1" id="master_svg0_161_363"><stop offset="0%" stop-color="#FF5D34" stop-opacity="1"/><stop offset="100%" stop-color="#FF3466" stop-opacity="1"/></linearGradient><mask id="master_svg1_161_61"><g><path d="M265.318,-1.8081e-13C279.274,-1.8081e-13,292.978,1.04771,306.352,3.06665L306.35,255.313L306.124,255.314C300.393,391.392,185.124,500,43.7653,500C28.8539,500,14.2328,498.792,0.0000119648,496.47L-4.72215e-13,239.364L0.680409,239.362C10.4899,105.575,125.224,-1.8081e-13,265.318,-1.8081e-13Z" fill="#FFFFFF" fill-opacity="1"/></g></mask><mask id="master_svg2_161_66"><g><path d="M265.318,-1.8081e-13C279.274,-1.8081e-13,292.978,1.04771,306.352,3.06665L306.35,255.313L306.124,255.314C300.393,391.392,185.124,500,43.7653,500C28.8539,500,14.2328,498.792,0.0000119648,496.47L-4.72215e-13,239.364L0.680409,239.362C10.4899,105.575,125.224,-1.8081e-13,265.318,-1.8081e-13Z" fill="#FFFFFF" fill-opacity="1"/></g></mask></defs><g><g><g><path d="M265.318,-1.8081e-13C279.274,-1.8081e-13,292.978,1.04771,306.352,3.06665L306.35,255.313L306.124,255.314C300.393,391.392,185.124,500,43.7653,500C28.8539,500,14.2328,498.792,0.0000119648,496.47L-4.72215e-13,239.364L0.680409,239.362C10.4899,105.575,125.224,-1.8081e-13,265.318,-1.8081e-13Z" fill-rule="evenodd" fill="url(#master_svg0_161_363)" fill-opacity="1"/></g><g mask="url(#master_svg1_161_61)"><g><path d="M87.9116671875,39.115234375L87.9116671875,266.630234375C87.9116671875,296.006234375,112.40366718749999,319.820234375,142.6162671875,319.820234375C149.01736718749999,319.820234375,155.3628671875,318.728234375,161.36686718750002,316.598234375L163.35486718750002,315.850234375L336.6068671875,246.837234375L349.0498671875,276.369234375L175.7968671875,345.382234375C165.2668671875,349.576234375,153.99616718750002,351.734234375,142.6162671875,351.734234375C94.8516671875,351.734234375,56.0231961875,314.533234375,55.1054772875,268.30423437499996L55.0888671875,266.630234375L55.0888671875,39.115234375L87.9116671875,39.115234375Z" fill="#FFFFFF" fill-opacity="1"/></g></g><g mask="url(#master_svg2_161_66)"><g><path d="M337.09060546875,84.450439453125L348.56660546875,114.350439453125L236.17620546875,155.131839453125C200.42280546875,168.105139453125,176.51430546875,200.964439453125,175.71410546875,237.932439453125L175.69340546875,239.848439453125L175.69340546875,511.436439453125L142.87060546875,511.436439453125L142.87060546875,239.848439453125C142.87060546875,189.500439453125,174.58160546875,144.37473945312502,222.63110546874998,126.002739453125L224.70030546875,125.231739453125L337.09060546875,84.450439453125Z" fill="#FFFFFF" fill-opacity="1"/></g></g></g><g><path d="M465.24,394.24L624.7,394.24L624.7,343.24L526.1,343.24L526.1,140.94L465.24,140.94L465.24,394.24ZM663.8,394.24L724.3199999999999,394.24L724.3199999999999,200.78L663.8,200.78L663.8,394.24ZM694.06,173.92C714.12,173.92,727.72,161.68,727.72,142.64C727.72,123.94,714.12,111.7,694.06,111.7C673.66,111.7,660.4,123.94,660.4,142.64C660.4,161.68,673.66,173.92,694.06,173.92ZM849.1,399C868.8199999999999,399,882.76,394.92,892.96,391.86L883.44,348C878.6800000000001,349.7,871.88,351.74,865.76,351.74C851.48,351.74,841.28,343.24,841.28,321.82L841.28,248.04L886.8399999999999,248.04L886.8399999999999,200.78L841.28,200.78L841.28,149.44L791.3,149.44L784.5,200.78L754.5799999999999,203.16L754.5799999999999,248.04L780.76,248.04L780.76,322.5C780.76,368.06,800.48,399,849.1,399ZM1011.96,399C1034.4,399,1060.92,391.18,1080.98,376.9L1060.92,340.52C1046.98,348.68,1034.06,352.76,1020.12,352.76C995.64,352.76,977.28,341.88,971.84,315.36L1085.4,315.36C1086.76,310.6,1088.12,300.06,1088.12,289.18C1088.12,236.48,1060.92,196.02,1005.16,196.02C958.58,196.02,913.36,234.78,913.36,297.34C913.36,361.6,956.2,399,1011.96,399ZM970.82,275.58C974.9,252.8,989.52,242.26,1006.18,242.26C1028.28,242.26,1036.78,256.54,1036.78,275.58L970.82,275.58ZM1131.6399999999999,394.24L1192.5,394.24L1192.5,297.68L1278.8600000000001,297.68L1278.8600000000001,247.02L1192.5,247.02L1192.5,191.6L1293.1399999999999,191.6L1293.1399999999999,140.94L1131.6399999999999,140.94L1131.6399999999999,394.24ZM1387.3200000000002,399C1400.92,399,1410.78,396.62,1417.24,393.9L1410.1,349.36C1406.7,350.04,1405.3400000000001,350.04,1403.3,350.04C1398.54,350.04,1392.76,346.3,1392.76,333.38L1392.76,122.58L1332.24,122.58L1332.24,331.34C1332.24,371.8,1345.8400000000001,399,1387.3200000000002,399ZM1529.1,399C1578.06,399,1623.62,361.6,1623.62,297.34C1623.62,233.42,1578.06,196.02,1529.1,196.02C1479.8,196.02,1434.24,233.42,1434.24,297.34C1434.24,361.6,1479.8,399,1529.1,399ZM1529.1,350.04C1506.32,350.04,1496.12,329.64,1496.12,297.34C1496.12,265.38,1506.32,244.98,1529.1,244.98C1551.54,244.98,1561.74,265.38,1561.74,297.34C1561.74,329.64,1551.54,350.04,1529.1,350.04ZM1694.34,394.24L1763.36,394.24L1779,320.46C1782.4,302.44,1785.12,284.76,1788.18,263.68L1789.88,263.68C1793.28,284.76,1796.34,302.44,1800.08,320.46L1816.4,394.24L1887.12,394.24L1932.68,200.78L1876.58,200.78L1859.92,287.14C1856.52,306.52,1854.48,325.56,1851.42,345.28L1849.72,345.28C1845.64,325.56,1842.24,306.52,1837.82,287.14L1817.08,200.78L1765.06,200.78L1745,287.14C1740.24,306.18,1737.18,325.56,1733.78,345.28L1732.08,345.28C1729.02,325.56,1726.98,306.52,1723.92,287.14L1706.58,200.78L1646.74,200.78L1694.34,394.24Z" fill="#FF3860" fill-opacity="1"/></g></g></svg>