<svg xmlns="http://www.w3.org/2000/svg" xmlns:xlink="http://www.w3.org/1999/xlink" fill="none" version="1.1" width="899" height="829" viewBox="0 0 899 829"><defs><filter id="master_svg2_5_0" filterUnits="userSpaceOnUse" color-interpolation-filters="sRGB" x="183.99996948242188" y="99" width="528.4400024414062" height="518.0400085449219"><feFlood flood-opacity="0" result="BackgroundImageFix"/><feColorMatrix in="SourceAlpha" type="matrix" values="0 0 0 0 0 0 0 0 0 0 0 0 0 0 0 0 0 0 127 0"/><feOffset dy="4" dx="0"/><feGaussianBlur stdDeviation="5"/><feColorMatrix type="matrix" values="0 0 0 0 0 0 0 0 0 0 0 0 0 0 0 0 0 0 0.3019607961177826 0"/><feBlend mode="normal" in2="BackgroundImageFix" result="effect1_dropShadow"/><feBlend mode="normal" in="SourceGraphic" in2="effect1_dropShadow" result="shape"/></filter><mask id="master_svg3_5_5"><rect x="232.21996688842773" y="143.01998901367188" width="422" height="422" rx="210.98109436035156" fill="#FFFFFF" fill-opacity="1"/></mask></defs><clipPath id="master_svg0_5_05256"><rect x="0" y="0" width="899" height="829" rx="0"/></clipPath><clipPath id="master_svg1_5_0"><rect x="193.99996948242188" y="105" width="508.44000244140625" height="498.0400085449219" rx="0"/></clipPath><g clip-path="url(#master_svg0_5_05256)" style="mix-blend-mode:passthrough"><g><g filter="url(#master_svg2_5_0)"><g><g style="mix-blend-mode:passthrough"><ellipse cx="443.00001525878906" cy="354.00001525878906" rx="230.00001525878906" ry="230.00001525878906" fill="#18191A" fill-opacity="1"/></g><g><g mask="url(#master_svg3_5_5)"><g><rect x="185.3556785583496" y="267.26817321777344" width="111.6500015258789" height="234.33999633789062" rx="20.8700008392334" transform="matrix(0.7071067690849304,-0.7071067690849304,0.7071067690849304,0.7071067690849304,-134.6977108818412,209.34729377146164)" fill="#FFFFFF" fill-opacity="1"/><rect x="456.02685165405273" y="354.02001953125" width="111.6500015258789" height="234.33999633789062" rx="20.8700008392334" transform="matrix(0.7071067690849304,-0.7071067690849304,0.7071067690849304,0.7071067690849304,-116.7627742371435,426.14974101819394)" fill="#FFFFFF" fill-opacity="1"/><rect x="364.067195892334" y="262.0634460449219" width="234.33999633789062" height="111.6500015258789" rx="20.8700008392334" transform="matrix(0.7071067690849304,-0.7071067690849304,0.7071067690849304,0.7071067690849304,-78.67401935299245,334.1909880340729)" fill="#FFFFFF" fill-opacity="1"/><rect x="277.3253364562988" y="532.734619140625" width="234.33999633789062" height="111.6500015258789" rx="20.8700008392334" transform="matrix(0.7071067690849304,-0.7071067690849304,0.7071067690849304,0.7071067690849304,-295.4735415109242,352.13298646741146)" fill="#FFFFFF" fill-opacity="1"/><path d="M348.2599633972168,246.32003720092774L273.25996739721677,171.32003720092774C268.9099633972168,166.96003720092773,346.2599633972168,131.19003720092775,352.4399633972168,131.19003720092775L419.44026339721677,108.18999860092774C425.6302633972168,108.18999860092774,497.2102633972168,107.18999820092773,492.8302633972168,111.57999720092774L358.1099633972168,246.32003720092774C355.3820633972168,249.02103720092774,350.9878633972168,249.02103720092774,348.2599633972168,246.32003720092774Z" fill="#E01E5A" fill-opacity="1"/><path d="M550.7799635290527,259.2399587524414L637.1299735290527,172.8999977524414C641.5099735290528,168.50999875244142,661.4402735290528,222.99995875244142,661.4402735290528,229.1999587524414L702.4402735290528,357.1996587524414C702.4402735290528,363.3996587524414,680.5502735290527,398.8496587524414,676.1702735290528,394.46965875244143L550.7799635290527,269.07995875244137C548.0857205290528,266.35325875244143,548.0857205290528,261.9667587524414,550.7799635290527,259.2399587524414Z" fill="#E01E5A" fill-opacity="1"/><path d="M537.4801401062011,461.5199880957031L620.8001401062012,544.8399980957031C625.1801401062012,549.2199980957031,607.6301401062012,553.1999980957031,601.4401401062012,553.1999980957031L460.43994010620116,595.2002980957031C454.2399401062012,595.2002980957031,389.31996010620117,599.8402980957031,393.69996310620115,595.4602980957031L527.6401401062012,461.5199880957031C530.3671401062012,458.8257450957031,534.7531401062012,458.8257450957031,537.4801401062011,461.5199880957031Z" fill="#E01E5A" fill-opacity="1"/><path d="M335.31025546264647,448.7600767822266L265.64995546264646,518.4200767822266C261.26995546264646,522.8000767822266,258.4399554626465,509.4200767822266,258.4399554626465,503.2000767822266L222.43996546264648,353.19997678222654C222.43996546264648,347.00997678222654,217.12996546264648,320.7400167822266,221.50996546264648,325.13000478222654L335.31025546264647,438.92007678222654C338.0042554626465,441.6470767822266,338.0042554626465,446.03307678222654,335.31025546264647,448.7600767822266Z" fill="#E01E5A" fill-opacity="1"/></g></g></g></g></g><g style="mix-blend-mode:passthrough"><path d="M108.75,759.76L183.7969,759.76L183.7969,735.76L137.3906,735.76L137.3906,640.76L108.75,640.76L108.75,759.76ZM202.51600000000002,759.76L231,759.76L231,668.76L202.51600000000002,668.76L202.51600000000002,759.76ZM216.75,656.0412C226.188,656.0412,232.594,650.2912,232.594,641.3225C232.594,632.5255999999999,226.188,626.76,216.75,626.76C207.156,626.76,200.906,632.5255999999999,200.906,641.3225C200.906,650.2912,207.156,656.0412,216.75,656.0412ZM289.35900000000004,761.76C298.64099999999996,761.76,305.188,759.854,310,758.4010000000001L305.51599999999996,737.7760000000001C303.281,738.572,300.078,739.5260000000001,297.188,739.5260000000001C290.469,739.5260000000001,285.672,735.557,285.672,725.5260000000001L285.672,691.01L307.10900000000004,691.01L307.10900000000004,668.76L285.672,668.76L285.672,644.6037L262.156,644.6037L258.953,668.76L244.875,669.885L244.875,691.01L257.188,691.01L257.188,725.854C257.188,747.213,266.469,761.76,289.35900000000004,761.76ZM365.797,761.76C376.359,761.76,388.828,758.088,398.281,751.369L388.828,734.369C382.281,738.119,376.188,740.01,369.641,740.01C358.109,740.01,349.469,734.994,346.906,722.76L400.359,722.76C401,720.5260000000001,401.641,715.572,401.641,710.447C401.641,685.807,388.828,666.76,362.594,666.76C340.672,666.76,319.39099999999996,685.01,319.39099999999996,714.2909999999999C319.39099999999996,744.1659999999999,339.547,761.76,365.797,761.76ZM346.438,704.0409999999999C348.35900000000004,693.432,355.234,688.526,363.078,688.526C373.469,688.526,377.469,695.182,377.469,704.0409999999999L346.438,704.0409999999999ZM421.75,759.76L450.391,759.76L450.391,714.604L491.031,714.604L491.031,690.76L450.391,690.76L450.391,664.6037L497.75,664.6037L497.75,640.76L421.75,640.76L421.75,759.76ZM542.438,761.76C548.828,761.76,553.469,760.6510000000001,556.5160000000001,759.369L553.156,738.4010000000001C551.547,738.729,550.906,738.729,549.953,738.729C547.719,738.729,545,736.963,545,730.885L545,631.6819L516.5160000000001,631.6819L516.5160000000001,729.932C516.5160000000001,748.963,522.906,761.76,542.438,761.76ZM609.031,761.76C632.078,761.76,653.516,744.1659999999999,653.516,714.182C653.516,684.369,632.078,666.76,609.031,666.76C585.828,666.76,564.3910000000001,684.369,564.3910000000001,714.182C564.3910000000001,744.1659999999999,585.828,761.76,609.031,761.76ZM609.031,738.729C598.312,738.729,593.5160000000001,729.229,593.5160000000001,714.182C593.5160000000001,699.307,598.312,689.807,609.031,689.807C619.594,689.807,624.391,699.307,624.391,714.182C624.391,729.229,619.594,738.729,609.031,738.729ZM686.875,759.76L719.359,759.76L726.719,725.057C728.312,716.588,729.594,708.2760000000001,731.031,698.369L731.828,698.369C733.438,708.2760000000001,734.875,716.588,736.641,725.057L744.312,759.76L777.594,759.76L799.031,668.76L772.641,668.76L764.797,709.4010000000001C763.188,718.51,762.234,727.463,760.797,736.729L760,736.729C758.078,727.463,756.469,718.51,754.391,709.4010000000001L744.641,668.76L720.156,668.76L710.719,709.4010000000001C708.469,718.354,707.031,727.463,705.438,736.729L704.641,736.729C703.188,727.463,702.234,718.51,700.797,709.4010000000001L692.641,668.76L664.469,668.76L686.875,759.76Z" fill="#E01E5A" fill-opacity="1"/></g></g></g></svg>