<svg xmlns="http://www.w3.org/2000/svg" xmlns:xlink="http://www.w3.org/1999/xlink" fill="none" version="1.1" width="2233" height="872" viewBox="0 0 2233 872"><defs><filter id="master_svg2_7_11" filterUnits="userSpaceOnUse" color-interpolation-filters="sRGB" x="851" y="79" width="528.4400024414062" height="518.0400085449219"><feFlood flood-opacity="0" result="BackgroundImageFix"/><feColorMatrix in="SourceAlpha" type="matrix" values="0 0 0 0 0 0 0 0 0 0 0 0 0 0 0 0 0 0 127 0"/><feOffset dy="4" dx="0"/><feGaussianBlur stdDeviation="5"/><feColorMatrix type="matrix" values="0 0 0 0 0 0 0 0 0 0 0 0 0 0 0 0 0 0 0.3019607961177826 0"/><feBlend mode="normal" in2="BackgroundImageFix" result="effect1_dropShadow"/><feBlend mode="normal" in="SourceGraphic" in2="effect1_dropShadow" result="shape"/></filter><mask id="master_svg3_7_16"><rect x="899.2199974060059" y="123.01998901367188" width="422" height="422" rx="210.98109436035156" fill="#FFFFFF" fill-opacity="1"/></mask></defs><clipPath id="master_svg0_7_02"><rect x="0" y="0" width="2233" height="872" rx="0"/></clipPath><clipPath id="master_svg1_7_11"><rect x="861" y="85" width="508.44000244140625" height="498.0400085449219" rx="0"/></clipPath><g clip-path="url(#master_svg0_7_02)" style="mix-blend-mode:passthrough"><rect x="0" y="0" width="2233" height="872" rx="0" fill="#DDDDDD" fill-opacity="1"/><g><g filter="url(#master_svg2_7_11)"><g><g style="mix-blend-mode:passthrough"><ellipse cx="1110.0000457763672" cy="334.00001525878906" rx="230.00001525878906" ry="230.00001525878906" fill="#18191A" fill-opacity="1"/></g><g><g mask="url(#master_svg3_7_16)"><g><rect x="852.3557090759277" y="247.26817321777344" width="111.6500015258789" height="234.33999633789062" rx="20.8700008392334" transform="matrix(0.7071067690849304,-0.7071067690849304,0.7071067690849304,0.7071067690849304,74.80421845860087,675.1296657119949)" fill="#FFFFFF" fill-opacity="1"/><rect x="1123.0268821716309" y="334.02001953125" width="111.6500015258789" height="234.33999633789062" rx="20.8700008392334" transform="matrix(0.7071067690849304,-0.7071067690849304,0.7071067690849304,0.7071067690849304,92.73915510329857,891.9321129587272)" fill="#FFFFFF" fill-opacity="1"/><rect x="1031.067226409912" y="242.06344604492188" width="234.33999633789062" height="111.6500015258789" rx="20.8700008392334" transform="matrix(0.7071067690849304,-0.7071067690849304,0.7071067690849304,0.7071067690849304,130.82790998744963,799.9733599746062)" fill="#FFFFFF" fill-opacity="1"/><rect x="944.325366973877" y="512.734619140625" width="234.33999633789062" height="111.6500015258789" rx="20.8700008392334" transform="matrix(0.7071067690849304,-0.7071067690849304,0.7071067690849304,0.7071067690849304,-85.9716121704821,817.9153584079447)" fill="#FFFFFF" fill-opacity="1"/><path d="M1015.2599939147949,226.32003720092774L940.2599979147949,151.32003720092774C935.9099939147949,146.96003720092773,1013.2599939147949,111.19003720092773,1019.439993914795,111.19003720092773L1086.440293914795,88.18999860092774C1092.630293914795,88.18999860092774,1164.2102939147949,87.18999820092773,1159.830293914795,91.57999720092774L1025.1099939147948,226.32003720092774C1022.382093914795,229.02103720092774,1017.9878939147949,229.02103720092774,1015.2599939147949,226.32003720092774Z" fill="#E01E5A" fill-opacity="1"/><path d="M1217.779994046631,239.2399587524414L1304.1300040466308,152.8999977524414C1308.510004046631,148.50999875244142,1328.440304046631,202.99995875244142,1328.440304046631,209.1999587524414L1369.440304046631,337.1996587524414C1369.440304046631,343.3996587524414,1347.5503040466308,378.8496587524414,1343.170304046631,374.46965875244143L1217.779994046631,249.0799587524414C1215.0857510466308,246.3532587524414,1215.0857510466308,241.96675875244142,1217.779994046631,239.2399587524414Z" fill="#E01E5A" fill-opacity="1"/><path d="M1204.4801706237793,441.5199880957031L1287.8001706237792,524.8399980957031C1292.1801706237793,529.2199980957031,1274.6301706237793,533.1999980957031,1268.4401706237793,533.1999980957031L1127.4399706237793,575.2002980957031C1121.2399706237793,575.2002980957031,1056.3199906237794,579.8402980957031,1060.6999936237794,575.4602980957031L1194.6401706237793,441.5199880957031C1197.3671706237792,438.8257450957031,1201.7531706237792,438.8257450957031,1204.4801706237793,441.5199880957031Z" fill="#E01E5A" fill-opacity="1"/><path d="M1002.3102859802246,428.7600767822266L932.6499859802246,498.4200767822266C928.2699859802246,502.8000767822266,925.4399859802246,489.4200767822266,925.4399859802246,483.2000767822266L889.4399959802246,333.19997678222654C889.4399959802246,327.00997678222654,884.1299959802246,300.7400167822266,888.5099959802246,305.13000478222654L1002.3102859802246,418.92007678222654C1005.0042859802246,421.6470767822266,1005.0042859802246,426.03307678222654,1002.3102859802246,428.7600767822266Z" fill="#E01E5A" fill-opacity="1"/></g></g></g></g></g><g style="mix-blend-mode:passthrough"><path d="M775.75,739.76L850.7969,739.76L850.7969,715.76L804.3906,715.76L804.3906,620.76L775.75,620.76L775.75,739.76ZM869.516,739.76L898,739.76L898,648.76L869.516,648.76L869.516,739.76ZM883.75,636.0412C893.188,636.0412,899.594,630.2912,899.594,621.3225C899.594,612.5255999999999,893.188,606.76,883.75,606.76C874.156,606.76,867.906,612.5255999999999,867.906,621.3225C867.906,630.2912,874.156,636.0412,883.75,636.0412ZM956.359,741.76C965.641,741.76,972.188,739.854,977,738.4010000000001L972.516,717.7760000000001C970.281,718.572,967.078,719.5260000000001,964.188,719.5260000000001C957.469,719.5260000000001,952.672,715.557,952.672,705.5260000000001L952.672,671.01L974.109,671.01L974.109,648.76L952.672,648.76L952.672,624.6037L929.156,624.6037L925.953,648.76L911.875,649.885L911.875,671.01L924.188,671.01L924.188,705.854C924.188,727.213,933.469,741.76,956.359,741.76ZM1032.797,741.76C1043.359,741.76,1055.828,738.088,1065.281,731.369L1055.828,714.369C1049.281,718.119,1043.188,720.01,1036.641,720.01C1025.109,720.01,1016.469,714.994,1013.906,702.76L1067.359,702.76C1068,700.5260000000001,1068.641,695.572,1068.641,690.447C1068.641,665.807,1055.828,646.76,1029.594,646.76C1007.672,646.76,986.391,665.01,986.391,694.2909999999999C986.391,724.1659999999999,1006.547,741.76,1032.797,741.76ZM1013.438,684.0409999999999C1015.359,673.432,1022.2339999999999,668.526,1030.078,668.526C1040.469,668.526,1044.469,675.182,1044.469,684.0409999999999L1013.438,684.0409999999999ZM1088.75,739.76L1117.391,739.76L1117.391,694.604L1158.031,694.604L1158.031,670.76L1117.391,670.76L1117.391,644.6037L1164.75,644.6037L1164.75,620.76L1088.75,620.76L1088.75,739.76ZM1209.438,741.76C1215.828,741.76,1220.469,740.6510000000001,1223.516,739.369L1220.156,718.4010000000001C1218.547,718.729,1217.906,718.729,1216.953,718.729C1214.719,718.729,1212,716.963,1212,710.885L1212,611.6819L1183.516,611.6819L1183.516,709.932C1183.516,728.963,1189.906,741.76,1209.438,741.76ZM1276.031,741.76C1299.078,741.76,1320.516,724.1659999999999,1320.516,694.182C1320.516,664.369,1299.078,646.76,1276.031,646.76C1252.828,646.76,1231.391,664.369,1231.391,694.182C1231.391,724.1659999999999,1252.828,741.76,1276.031,741.76ZM1276.031,718.729C1265.312,718.729,1260.516,709.229,1260.516,694.182C1260.516,679.307,1265.312,669.807,1276.031,669.807C1286.594,669.807,1291.391,679.307,1291.391,694.182C1291.391,709.229,1286.594,718.729,1276.031,718.729ZM1353.875,739.76L1386.359,739.76L1393.719,705.057C1395.312,696.588,1396.594,688.2760000000001,1398.031,678.369L1398.828,678.369C1400.438,688.2760000000001,1401.875,696.588,1403.641,705.057L1411.312,739.76L1444.594,739.76L1466.031,648.76L1439.641,648.76L1431.797,689.4010000000001C1430.188,698.51,1429.234,707.463,1427.797,716.729L1427,716.729C1425.078,707.463,1423.469,698.51,1421.391,689.4010000000001L1411.641,648.76L1387.156,648.76L1377.719,689.4010000000001C1375.469,698.354,1374.031,707.463,1372.438,716.729L1371.641,716.729C1370.188,707.463,1369.234,698.51,1367.797,689.4010000000001L1359.641,648.76L1331.469,648.76L1353.875,739.76Z" fill="#18191A" fill-opacity="1"/></g></g></g></svg>