<svg xmlns="http://www.w3.org/2000/svg" xmlns:xlink="http://www.w3.org/1999/xlink" fill="none" version="1.1" width="2233" height="872" viewBox="0 0 2233 872"><defs><filter id="master_svg2_7_11" filterUnits="userSpaceOnUse" color-interpolation-filters="sRGB" x="109" y="181" width="528.4400024414062" height="518.0400085449219"><feFlood flood-opacity="0" result="BackgroundImageFix"/><feColorMatrix in="SourceAlpha" type="matrix" values="0 0 0 0 0 0 0 0 0 0 0 0 0 0 0 0 0 0 127 0"/><feOffset dy="4" dx="0"/><feGaussianBlur stdDeviation="5"/><feColorMatrix type="matrix" values="0 0 0 0 0 0 0 0 0 0 0 0 0 0 0 0 0 0 0.3019607961177826 0"/><feBlend mode="normal" in2="BackgroundImageFix" result="effect1_dropShadow"/><feBlend mode="normal" in="SourceGraphic" in2="effect1_dropShadow" result="shape"/></filter><mask id="master_svg3_7_16"><rect x="157.21999740600586" y="225.01998901367188" width="422" height="422" rx="210.98109436035156" fill="#FFFFFF" fill-opacity="1"/></mask></defs><clipPath id="master_svg0_7_02"><rect x="0" y="0" width="2233" height="872" rx="0"/></clipPath><clipPath id="master_svg1_7_11"><rect x="119" y="187" width="508.44000244140625" height="498.0400085449219" rx="0"/></clipPath><g clip-path="url(#master_svg0_7_02)" style="mix-blend-mode:passthrough"><rect x="0" y="0" width="2233" height="872" rx="0" fill="#DDDDDD" fill-opacity="1"/><g><g filter="url(#master_svg2_7_11)"><g><g style="mix-blend-mode:passthrough"><ellipse cx="368.0000457763672" cy="436.00001525878906" rx="230.00001525878906" ry="230.00001525878906" fill="#18191A" fill-opacity="1"/></g><g><g mask="url(#master_svg3_7_16)"><g><rect x="110.35570907592773" y="349.26817321777344" width="111.6500015258789" height="234.33999633789062" rx="20.8700008392334" transform="matrix(0.7071067690849304,-0.7071067690849304,0.7071067690849304,0.7071067690849304,-214.64744932704366,180.33155260431363)" fill="#FFFFFF" fill-opacity="1"/><rect x="381.02688217163086" y="436.02001953125" width="111.6500015258789" height="234.33999633789062" rx="20.8700008392334" transform="matrix(0.7071067690849304,-0.7071067690849304,0.7071067690849304,0.7071067690849304,-196.71251268234596,397.1339998510459)" fill="#FFFFFF" fill-opacity="1"/><rect x="289.0672264099121" y="344.0634460449219" width="234.33999633789062" height="111.6500015258789" rx="20.8700008392334" transform="matrix(0.7071067690849304,-0.7071067690849304,0.7071067690849304,0.7071067690849304,-158.6237577981949,305.1752468669249)" fill="#FFFFFF" fill-opacity="1"/><rect x="202.32536697387695" y="614.734619140625" width="234.33999633789062" height="111.6500015258789" rx="20.8700008392334" transform="matrix(0.7071067690849304,-0.7071067690849304,0.7071067690849304,0.7071067690849304,-375.42327995612663,323.11724530026345)" fill="#FFFFFF" fill-opacity="1"/><path d="M273.2599939147949,328.32003720092774L198.25999791479492,253.32003720092774C193.9099939147949,248.96003720092773,271.2599939147949,213.19003720092775,277.4399939147949,213.19003720092775L344.4402939147949,190.18999860092774C350.63029391479495,190.18999860092774,422.21029391479493,189.18999820092773,417.83029391479494,193.57999720092772L283.1099939147949,328.32003720092774C280.38209391479495,331.0210372009277,275.98789391479494,331.0210372009277,273.2599939147949,328.32003720092774Z" fill="#E01E5A" fill-opacity="1"/><path d="M475.77999404663086,341.2399587524414L562.1300040466308,254.8999977524414C566.5100040466309,250.50999875244142,586.4403040466309,304.9999587524414,586.4403040466309,311.1999587524414L627.4403040466309,439.1996587524414C627.4403040466309,445.3996587524414,605.5503040466308,480.8496587524414,601.1703040466309,476.46965875244143L475.77999404663086,351.07995875244137C473.08575104663083,348.35325875244143,473.08575104663083,343.9667587524414,475.77999404663086,341.2399587524414Z" fill="#E01E5A" fill-opacity="1"/><path d="M462.48017062377926,543.5199880957031L545.8001706237793,626.8399980957031C550.1801706237793,631.2199980957031,532.6301706237793,635.1999980957031,526.4401706237793,635.1999980957031L385.4399706237793,677.2002980957031C379.2399706237793,677.2002980957031,314.3199906237793,681.8402980957031,318.6999936237793,677.4602980957031L452.6401706237793,543.5199880957031C455.3671706237793,540.8257450957032,459.7531706237793,540.8257450957032,462.48017062377926,543.5199880957031Z" fill="#E01E5A" fill-opacity="1"/><path d="M260.3102859802246,530.7600767822265L190.6499859802246,600.4200767822266C186.26998598022462,604.8000767822266,183.4399859802246,591.4200767822266,183.4399859802246,585.2000767822266L147.4399959802246,435.19997678222654C147.4399959802246,429.00997678222654,142.1299959802246,402.7400167822266,146.5099959802246,407.13000478222654L260.3102859802246,520.9200767822266C263.0042859802246,523.6470767822266,263.0042859802246,528.0330767822265,260.3102859802246,530.7600767822265Z" fill="#E01E5A" fill-opacity="1"/></g></g></g></g></g><g style="mix-blend-mode:passthrough"><path d="M707.5156,575.02L857.594,575.02L857.594,527.02L764.7969,527.02L764.7969,337.02L707.5156,337.02L707.5156,575.02ZM894.031,575.02L951,575.02L951,393.02L894.031,393.02L894.031,575.02ZM922.516,367.582C941.3910000000001,367.582,954.188,356.067,954.188,338.145C954.188,320.551,941.3910000000001,309.02,922.516,309.02C903.312,309.02,890.828,320.551,890.828,338.145C890.828,356.067,903.312,367.582,922.516,367.582ZM1068.719,579.02C1087.281,579.02,1100.391,575.192,1110,572.3009999999999L1101.031,531.0509999999999C1096.562,532.645,1090.156,534.5509999999999,1084.391,534.5509999999999C1070.953,534.5509999999999,1061.359,526.598,1061.359,506.551L1061.359,437.504L1104.234,437.504L1104.234,393.02L1061.359,393.02L1061.359,344.707L1014.312,344.707L1007.906,393.02L979.75,395.27L979.75,437.504L1004.3910000000001,437.504L1004.3910000000001,507.192C1004.3910000000001,549.9110000000001,1022.953,579.02,1068.719,579.02ZM1221.594,579.02C1242.719,579.02,1267.672,571.6610000000001,1286.562,558.223L1267.672,524.0360000000001C1254.562,531.692,1242.391,535.504,1229.281,535.504C1206.234,535.504,1188.953,525.317,1183.828,500.473L1290.719,500.473C1292,495.989,1293.281,486.067,1293.281,475.832C1293.281,426.11400000000003,1267.672,388.02,1215.188,388.02C1171.359,388.02,1128.797,424.504,1128.797,483.504C1128.797,543.832,1169.109,579.02,1221.594,579.02ZM1182.875,463.02C1186.719,441.504,1200.469,431.551,1216.156,431.551C1236.953,431.551,1244.953,445.036,1244.953,463.02L1182.875,463.02ZM1334.516,575.02L1391.797,575.02L1391.797,484.707L1473.078,484.707L1473.078,437.02L1391.797,437.02L1391.797,384.707L1486.516,384.707L1486.516,337.02L1334.516,337.02L1334.516,575.02ZM1574.875,579.02C1587.672,579.02,1596.953,576.7860000000001,1603.031,574.223L1596.312,532.3009999999999C1593.109,532.942,1591.828,532.942,1589.922,532.942C1585.438,532.942,1580,529.4259999999999,1580,517.27L1580,318.86400000000003L1523.031,318.86400000000003L1523.031,515.348C1523.031,553.4259999999999,1535.828,579.02,1574.875,579.02ZM1708.08,579.02C1754.16,579.02,1797.03,543.832,1797.03,483.364C1797.03,423.223,1754.16,388.02,1708.08,388.02C1661.672,388.02,1618.797,423.223,1618.797,483.364C1618.797,543.832,1661.672,579.02,1708.08,579.02ZM1708.08,532.942C1686.6399999999999,532.942,1677.031,513.754,1677.031,483.364C1677.031,453.301,1686.6399999999999,434.11400000000003,1708.08,434.11400000000003C1729.19,434.11400000000003,1738.8,453.301,1738.8,483.364C1738.8,513.754,1729.19,532.942,1708.08,532.942ZM1863.75,575.02L1928.72,575.02L1943.44,505.598C1946.64,488.676,1949.2,472.051,1952.08,452.223L1953.67,452.223C1956.88,472.051,1959.75,488.676,1963.28,505.614L1978.64,575.02L2045.2,575.02L2088.08,393.02L2035.28,393.02L2019.59,474.286C2016.39,492.504,2014.48,510.411,2011.59,528.942L2010,528.942C2006.16,510.411,2002.95,492.504,1998.8,474.286L1979.28,393.02L1930.31,393.02L1911.44,474.286C1906.95,492.192,1904.08,510.411,1900.88,528.942L1899.28,528.942C1896.39,510.411,1894.47,492.504,1891.59,474.286L1875.28,393.02L1818.95,393.02L1863.75,575.02Z" fill="#18191A" fill-opacity="1"/></g></g></g></svg>