<svg xmlns="http://www.w3.org/2000/svg" xmlns:xlink="http://www.w3.org/1999/xlink" viewBox="0 0 701.53 641.58"><defs><style>.cls-1{fill:none;}.cls-2{fill:#21222c;}.cls-3{clip-path:url(#clip-path);}.cls-4{fill:#fff;}.cls-5{fill:#e01e5a;}.cls-6{font-size:160px;font-family:Arial-Black, Arial Black;font-weight:800;letter-spacing:-0.05em;}.cls-7{letter-spacing:-0.04em;}.cls-8{letter-spacing:-0.05em;}.cls-9{letter-spacing:-0.07em;}</style><clipPath id="clip-path" transform="translate(0 61.19)"><circle class="cls-1" cx="335.43" cy="187.83" r="187.5"/></clipPath></defs><title>资源 11</title><g id="图层_2" data-name="图层 2"><g id="图层_1-2" data-name="图层 1"><rect class="cls-2" x="147.68" y="61.19" width="375" height="375" rx="187.5"/><g class="cls-3"><rect class="cls-4" x="144.27" y="27.29" width="111.65" height="234.34" rx="20.87" transform="translate(-43.54 244.98) rotate(-45)"/><rect class="cls-4" x="414.95" y="114.04" width="111.65" height="234.34" rx="20.87" transform="translate(-25.6 461.79) rotate(-45)"/><rect class="cls-4" x="261.64" y="-3.33" width="234.34" height="111.65" rx="20.87" transform="translate(73.83 344.42) rotate(-45)"/><rect class="cls-4" x="174.89" y="267.35" width="234.34" height="111.65" rx="20.87" transform="translate(-142.97 362.35) rotate(-45)"/><rect class="cls-1" x="178.39" y="91.98" width="314.08" height="314.08"/><path class="cls-5" d="M240.69,80.13l-75-75C161.33.77,238.66-35,244.85-35l67-23c6.2,0,77.78-1,73.4,3.39L250.52,80.13A6.94,6.94,0,0,1,240.69,80.13Z" transform="translate(0 61.19)"/><path class="cls-5" d="M443.2,93.05,529.55,6.71c4.38-4.39,24.31,50.1,24.3,56.3l41,128c0,6.2-21.88,41.65-26.26,37.27L443.2,102.89A7,7,0,0,1,443.2,93.05Z" transform="translate(0 61.19)"/><path class="cls-5" d="M429.9,295.33l83.32,83.32C517.6,383,500.05,387,493.85,387l-141,42c-6.19,0-71.12,4.64-66.73.26L420.06,295.33A7,7,0,0,1,429.9,295.33Z" transform="translate(0 61.19)"/><path class="cls-5" d="M227.73,282.57l-69.66,69.66c-4.38,4.38-7.22-9-7.22-15.22l-36-150c0-6.19-5.3-32.46-.92-28.07l113.8,113.79A7,7,0,0,1,227.73,282.57Z" transform="translate(0 61.19)"/></g><text class="cls-6" transform="translate(0 592.52)">Lite<tspan class="cls-7" x="307.65" y="0">F</tspan><tspan class="cls-8" x="408.1" y="0">l</tspan><tspan class="cls-9" x="453.86" y="0">o</tspan><tspan class="cls-8" x="550.17" y="0">w</tspan></text></g></g></svg>