<svg xmlns="http://www.w3.org/2000/svg" xmlns:xlink="http://www.w3.org/1999/xlink" fill="none" version="1.1" width="1007" height="928" viewBox="0 0 1007 928"><defs><clipPath id="master_svg0_254_132"><rect x="0" y="0" width="1007" height="928" rx="0"/></clipPath><linearGradient x1="0.5" y1="0" x2="0.5" y2="1" id="master_svg1_161_054"><stop offset="0%" stop-color="#FF5D34" stop-opacity="1"/><stop offset="100%" stop-color="#FF3466" stop-opacity="1"/></linearGradient><mask id="master_svg2_254_145"><g><path d="M612.318,95.99999999999982C626.274,95.99999999999982,639.9780000000001,97.04771,653.352,99.06665L653.35,351.313L653.124,351.31399999999996C647.393,487.392,532.124,596,390.7653,596C375.8539,596,361.2328,594.7919999999999,347.0000119648,592.47L346.99999999999955,335.36400000000003L347.680409,335.36199999999997C357.4899,201.575,472.224,95.99999999999982,612.318,95.99999999999982Z" fill="#FFFFFF" fill-opacity="1"/></g></mask><mask id="master_svg3_254_147"><g><path d="M612.318,95.99999999999982C626.274,95.99999999999982,639.9780000000001,97.04771,653.352,99.06665L653.35,351.313L653.124,351.31399999999996C647.393,487.392,532.124,596,390.7653,596C375.8539,596,361.2328,594.7919999999999,347.0000119648,592.47L346.99999999999955,335.36400000000003L347.680409,335.36199999999997C357.4899,201.575,472.224,95.99999999999982,612.318,95.99999999999982Z" fill="#FFFFFF" fill-opacity="1"/></g></mask></defs><g clip-path="url(#master_svg0_254_132)"><g><g><g><path d="M612.318,95.99999999999982C626.274,95.99999999999982,639.9780000000001,97.04771,653.352,99.06665L653.35,351.313L653.124,351.31399999999996C647.393,487.392,532.124,596,390.7653,596C375.8539,596,361.2328,594.7919999999999,347.0000119648,592.47L346.99999999999955,335.36400000000003L347.680409,335.36199999999997C357.4899,201.575,472.224,95.99999999999982,612.318,95.99999999999982Z" fill-rule="evenodd" fill="url(#master_svg1_161_054)" fill-opacity="1"/></g><g mask="url(#master_svg2_254_145)"><g><path d="M434.91166718750003,135.115234375L434.91166718750003,362.630234375C434.91166718750003,392.006234375,459.4036671875,415.820234375,489.6162671875,415.820234375C496.0173671875,415.820234375,502.3628671875,414.728234375,508.3668671875,412.598234375L510.3548671875,411.850234375L683.6068671875,342.837234375L696.0498671875,372.369234375L522.7968671875,441.382234375C512.2668671875,445.576234375,500.9961671875,447.734234375,489.6162671875,447.734234375C441.85166718749997,447.734234375,403.0231961875,410.533234375,402.1054772875,364.30423437499996L402.0888671875,362.630234375L402.0888671875,135.115234375L434.91166718750003,135.115234375Z" fill="#FFFFFF" fill-opacity="1"/></g></g><g mask="url(#master_svg3_254_147)"><g><path d="M684.09060546875,180.450439453125L695.56660546875,210.350439453125L583.17620546875,251.131839453125C547.42280546875,264.105139453125,523.51430546875,296.964439453125,522.71410546875,333.93243945312497L522.69340546875,335.848439453125L522.69340546875,607.436439453125L489.87060546875,607.436439453125L489.87060546875,335.848439453125C489.87060546875,285.500439453125,521.58160546875,240.37473945312502,569.63110546875,222.002739453125L571.70030546875,221.231739453125L684.09060546875,180.450439453125Z" fill="#FFFFFF" fill-opacity="1"/></g></g></g><g><path d="M74.2,813.2L168,813.2L168,783.2L110,783.2L110,664.2L74.2,664.2L74.2,813.2ZM191,813.2L226.6,813.2L226.6,699.4L191,699.4L191,813.2ZM208.8,683.6C220.6,683.6,228.6,676.4,228.6,665.2C228.6,654.2,220.6,647,208.8,647C196.8,647,189,654.2,189,665.2C189,676.4,196.8,683.6,208.8,683.6ZM300,816C311.6,816,319.8,813.6,325.8,811.8L320.2,786C317.4,787,313.4,788.2,309.8,788.2C301.4,788.2,295.4,783.2,295.4,770.6L295.4,727.2L322.2,727.2L322.2,699.4L295.4,699.4L295.4,669.2L266,669.2L262,699.4L244.4,700.8L244.4,727.2L259.8,727.2L259.8,771C259.8,797.8,271.4,816,300,816ZM395.8,816C409,816,424.6,811.4,436.4,803L424.6,781.6C416.4,786.4,408.8,788.8,400.6,788.8C386.2,788.8,375.4,782.4,372.2,766.8L439,766.8C439.8,764,440.6,757.8,440.6,751.4C440.6,720.4,424.6,696.6,391.8,696.6C364.4,696.6,337.8,719.4,337.8,756.2C337.8,794,363,816,395.8,816ZM371.6,743.4C374,730,382.6,723.8,392.4,723.8C405.4,723.8,410.4,732.2,410.4,743.4L371.6,743.4ZM466.2,813.2L502,813.2L502,756.4L552.8,756.4L552.8,726.6L502,726.6L502,694L561.2,694L561.2,664.2L466.2,664.2L466.2,813.2ZM616.6,816C624.6,816,630.4,814.6,634.2,813L630,786.8C628,787.2,627.2,787.2,626,787.2C623.2,787.2,619.8,785,619.8,777.4L619.8,653.4L584.2,653.4L584.2,776.2C584.2,800,592.2,816,616.6,816ZM700,816C728.8,816,755.6,794,755.6,756.2C755.6,718.6,728.8,696.6,700,696.6C671,696.6,644.2,718.6,644.2,756.2C644.2,794,671,816,700,816ZM700,787.2C686.6,787.2,680.6,775.2,680.6,756.2C680.6,737.4,686.6,725.4,700,725.4C713.2,725.4,719.2,737.4,719.2,756.2C719.2,775.2,713.2,787.2,700,787.2ZM797.2,813.2L837.8,813.2L847,769.8C849,759.2,850.6,748.8,852.4,736.4L853.4,736.4C855.4,748.8,857.2,759.2,859.4,769.8L869,813.2L910.6,813.2L937.4,699.4L904.4,699.4L894.6,750.2C892.6,761.6,891.4,772.8,889.6,784.4L888.6,784.4C886.2,772.8,884.2,761.6,881.6,750.2L869.4,699.4L838.8,699.4L827,750.2C824.2,761.4,822.4,772.8,820.4,784.4L819.4,784.4C817.6,772.8,816.4,761.6,814.6,750.2L804.4,699.4L769.2,699.4L797.2,813.2Z" fill="#2C2C2C" fill-opacity="1"/></g></g></g></svg>