<svg xmlns="http://www.w3.org/2000/svg" xmlns:xlink="http://www.w3.org/1999/xlink" fill="none" version="1.1" width="1118" height="1040" viewBox="0 0 1118 1040"><defs><clipPath id="master_svg0_254_132"><rect x="0" y="0" width="1118" height="1040" rx="0"/></clipPath><linearGradient x1="0.5" y1="0" x2="0.5" y2="1" id="master_svg1_161_054"><stop offset="0%" stop-color="#FF5D34" stop-opacity="1"/><stop offset="100%" stop-color="#FF3466" stop-opacity="1"/></linearGradient><mask id="master_svg2_254_145"><g><path d="M635.318,100.99999999999982C649.274,100.99999999999982,662.9780000000001,102.04771,676.352,104.06665L676.35,356.313L676.124,356.31399999999996C670.393,492.392,555.124,601,413.7653,601C398.8539,601,384.2328,599.7919999999999,370.0000119648,597.47L369.99999999999955,340.36400000000003L370.680409,340.36199999999997C380.4899,206.575,495.224,100.99999999999982,635.318,100.99999999999982Z" fill="#FFFFFF" fill-opacity="1"/></g></mask><mask id="master_svg3_254_147"><g><path d="M635.318,100.99999999999982C649.274,100.99999999999982,662.9780000000001,102.04771,676.352,104.06665L676.35,356.313L676.124,356.31399999999996C670.393,492.392,555.124,601,413.7653,601C398.8539,601,384.2328,599.7919999999999,370.0000119648,597.47L369.99999999999955,340.36400000000003L370.680409,340.36199999999997C380.4899,206.575,495.224,100.99999999999982,635.318,100.99999999999982Z" fill="#FFFFFF" fill-opacity="1"/></g></mask></defs><g clip-path="url(#master_svg0_254_132)"><g><g><g><path d="M635.318,100.99999999999982C649.274,100.99999999999982,662.9780000000001,102.04771,676.352,104.06665L676.35,356.313L676.124,356.31399999999996C670.393,492.392,555.124,601,413.7653,601C398.8539,601,384.2328,599.7919999999999,370.0000119648,597.47L369.99999999999955,340.36400000000003L370.680409,340.36199999999997C380.4899,206.575,495.224,100.99999999999982,635.318,100.99999999999982Z" fill-rule="evenodd" fill="url(#master_svg1_161_054)" fill-opacity="1"/></g><g mask="url(#master_svg2_254_145)"><g><path d="M457.91166718750003,140.115234375L457.91166718750003,367.630234375C457.91166718750003,397.006234375,482.4036671875,420.820234375,512.6162671875,420.820234375C519.0173671875,420.820234375,525.3628671875,419.728234375,531.3668671875,417.598234375L533.3548671875,416.850234375L706.6068671875,347.837234375L719.0498671875,377.369234375L545.7968671875,446.382234375C535.2668671875,450.576234375,523.9961671875,452.734234375,512.6162671875,452.734234375C464.85166718749997,452.734234375,426.0231961875,415.533234375,425.1054772875,369.30423437499996L425.0888671875,367.630234375L425.0888671875,140.115234375L457.91166718750003,140.115234375Z" fill="#FFFFFF" fill-opacity="1"/></g></g><g mask="url(#master_svg3_254_147)"><g><path d="M707.09060546875,185.450439453125L718.56660546875,215.350439453125L606.17620546875,256.131839453125C570.42280546875,269.105139453125,546.51430546875,301.964439453125,545.71410546875,338.93243945312497L545.69340546875,340.848439453125L545.69340546875,612.436439453125L512.87060546875,612.436439453125L512.87060546875,340.848439453125C512.87060546875,290.500439453125,544.58160546875,245.37473945312502,592.63110546875,227.002739453125L594.70030546875,226.231739453125L707.09060546875,185.450439453125Z" fill="#FFFFFF" fill-opacity="1"/></g></g></g><g><path d="M146.2,923.2L240,923.2L240,893.2L182,893.2L182,774.2L146.2,774.2L146.2,923.2ZM263,923.2L298.6,923.2L298.6,809.4L263,809.4L263,923.2ZM280.8,793.6C292.6,793.6,300.6,786.4,300.6,775.2C300.6,764.2,292.6,757,280.8,757C268.8,757,261,764.2,261,775.2C261,786.4,268.8,793.6,280.8,793.6ZM372,926C383.6,926,391.8,923.6,397.8,921.8L392.2,896C389.4,897,385.4,898.2,381.8,898.2C373.4,898.2,367.4,893.2,367.4,880.6L367.4,837.2L394.2,837.2L394.2,809.4L367.4,809.4L367.4,779.2L338,779.2L334,809.4L316.4,810.8L316.4,837.2L331.8,837.2L331.8,881C331.8,907.8,343.4,926,372,926ZM467.8,926C481,926,496.6,921.4,508.4,913L496.6,891.6C488.4,896.4,480.8,898.8,472.6,898.8C458.2,898.8,447.4,892.4,444.2,876.8L511,876.8C511.8,874,512.6,867.8,512.6,861.4C512.6,830.4,496.6,806.6,463.8,806.6C436.4,806.6,409.8,829.4,409.8,866.2C409.8,904,435,926,467.8,926ZM443.6,853.4C446,840,454.6,833.8,464.4,833.8C477.4,833.8,482.4,842.2,482.4,853.4L443.6,853.4ZM538.2,923.2L574,923.2L574,866.4L624.8,866.4L624.8,836.6L574,836.6L574,804L633.2,804L633.2,774.2L538.2,774.2L538.2,923.2ZM688.6,926C696.6,926,702.4,924.6,706.2,923L702,896.8C700,897.2,699.2,897.2,698,897.2C695.2,897.2,691.8,895,691.8,887.4L691.8,763.4L656.2,763.4L656.2,886.2C656.2,910,664.2,926,688.6,926ZM772,926C800.8,926,827.6,904,827.6,866.2C827.6,828.6,800.8,806.6,772,806.6C743,806.6,716.2,828.6,716.2,866.2C716.2,904,743,926,772,926ZM772,897.2C758.6,897.2,752.6,885.2,752.6,866.2C752.6,847.4,758.6,835.4,772,835.4C785.2,835.4,791.2,847.4,791.2,866.2C791.2,885.2,785.2,897.2,772,897.2ZM869.2,923.2L909.8,923.2L919,879.8C921,869.2,922.6,858.8,924.4,846.4L925.4,846.4C927.4,858.8,929.2,869.2,931.4,879.8L941,923.2L982.6,923.2L1009.4,809.4L976.4,809.4L966.6,860.2C964.6,871.6,963.4,882.8,961.6,894.4L960.6,894.4C958.2,882.8,956.2,871.6,953.6,860.2L941.4,809.4L910.8,809.4L899,860.2C896.2,871.4,894.4,882.8,892.4,894.4L891.4,894.4C889.6,882.8,888.4,871.6,886.6,860.2L876.4,809.4L841.2,809.4L869.2,923.2Z" fill="#FF3860" fill-opacity="1"/></g></g></g></svg>